<?xml version="1.0" standalone="no"?>
<!DOCTYPE svg PUBLIC "-//W3C//DTD SVG 20010904//EN"
 "http://www.w3.org/TR/2001/REC-SVG-20010904/DTD/svg10.dtd">
<svg version="1.0" xmlns="http://www.w3.org/2000/svg"
 width="700.000000pt" height="700.000000pt" viewBox="0 0 700.000000 700.000000"
 preserveAspectRatio="xMidYMid meet">
<metadata>
Created by potrace 1.14, written by Peter Selinger 2001-2017
</metadata>
<g transform="translate(0.000000,700.000000) scale(0.100000,-0.100000)"
fill="#000000" stroke="none">
<path d="M3280 6994 c-19 -2 -84 -9 -145 -14 -578 -56 -1180 -283 -1660 -625
-237 -169 -531 -446 -709 -670 -416 -521 -673 -1147 -748 -1820 -17 -155 -17
-575 0 -730 52 -469 198 -931 418 -1327 290 -523 731 -983 1239 -1294 439
-269 920 -432 1460 -496 145 -17 576 -17 730 0 822 91 1556 447 2131 1034 203
206 348 390 487 618 274 449 433 916 499 1465 16 136 16 592 0 730 -86 725
-352 1347 -803 1885 -122 145 -351 370 -494 484 -510 407 -1117 661 -1775 742
-117 15 -553 27 -630 18z m861 -1144 c339 -35 724 -168 997 -346 500 -326 834
-855 949 -1504 34 -195 43 -541 19 -730 -52 -398 -207 -825 -413 -1137 -171
-260 -402 -488 -656 -645 -110 -69 -338 -177 -465 -222 -323 -113 -685 -168
-1112 -168 -267 -1 -431 14 -650 59 -1008 203 -1718 931 -1902 1950 -21 115
-23 158 -23 433 0 384 23 559 106 815 100 307 332 673 550 866 131 117 308
240 497 347 79 45 92 48 109 31 8 -8 -21 -43 -107 -127 -367 -364 -590 -852
-666 -1457 -19 -157 -22 -495 -5 -645 65 -559 264 -1059 566 -1419 129 -153
290 -285 460 -378 812 -440 1835 -341 2535 245 224 187 379 399 495 677 133
316 195 654 196 1054 0 485 -103 932 -293 1278 -201 365 -559 631 -1003 746
-199 52 -275 61 -510 62 -224 0 -287 -6 -450 -46 -360 -88 -662 -286 -832
-545 -130 -198 -203 -452 -203 -706 l0 -78 -35 0 -35 0 0 103 c0 367 86 683
250 915 208 296 604 498 1105 566 123 17 387 20 526 6z"/>
</g>
</svg>
