<svg xmlns="http://www.w3.org/2000/svg" width="400" height="220" viewBox="0 0 400 220"><path fill="#009DDC" d="M74.469 127.247c.201.205.733.35 1.593.439v.815H62.101v-.815c.857-.09 1.392-.234 1.592-.439.205-.203.307-.464.307-.78V94.89c0-.315-.102-.577-.307-.78-.2-.202-.734-.348-1.592-.439v-.812h24.26c2.123 0 3.999.302 5.624.914 1.625.609 2.982 1.434 4.065 2.474a10.065 10.065 0 0 1 2.44 3.624c.542 1.378.814 2.812.814 4.304s-.272 2.926-.814 4.304a9.75 9.75 0 0 1-2.44 3.59c-1.083 1.019-2.44 1.83-4.065 2.441-1.625.608-3.501.915-5.624.915H74.163v11.043c0 .315.101.576.306.779m9.994-19.007c1.898 0 3.287-.317 4.167-.951.881-.632 1.322-1.668 1.322-3.116 0-1.31-.441-2.258-1.322-2.845-.88-.588-2.27-.881-4.167-.881h-10.3v7.793h10.3zm54.822 11.992c.36 0 .631-.122.812-.372.181-.248.316-.757.407-1.526h.812v11.725h-.812c-.091-.723-.227-1.162-.407-1.321-.18-.159-.451-.235-.812-.235H103.91v-.815c.858-.09 1.39-.234 1.593-.439.204-.203.305-.464.305-.78V94.89a1.06 1.06 0 0 0-.305-.78c-.203-.202-.735-.348-1.593-.439v-.813h13.961v.813c-.859.092-1.39.238-1.593.439a1.062 1.062 0 0 0-.306.78v25.343h23.313zm14.5 6.778c0 .226.079.396.238.507.159.114.485.17.983.17v.815h-11.994v-.815c.496-.09.857-.234 1.085-.439.225-.203.451-.577.677-1.116.089-.227.316-.836.678-1.831.361-.993.836-2.249 1.423-3.763.584-1.514 1.242-3.194 1.965-5.048a481.692 481.692 0 0 0 2.168-5.658c.723-1.918 1.435-3.794 2.135-5.625.7-1.828 1.322-3.466 1.864-4.913.542-1.445.981-2.62 1.322-3.521.337-.904.507-1.378.507-1.426 0-.223-.147-.382-.44-.474a6.285 6.285 0 0 0-.916-.202v-.813h17.687v.813a3.731 3.731 0 0 0-.88.202c-.226.091-.339.317-.339.678 0 .091.216.679.644 1.763.429 1.083.983 2.498 1.66 4.234.679 1.74 1.457 3.707 2.338 5.894.881 2.193 1.797 4.43 2.745 6.71a879.689 879.689 0 0 1 2.743 6.675 543.676 543.676 0 0 0 2.406 5.83c.361.811.666 1.354.917 1.623.247.273.575.407.981.407v.815h-13.349v-.815c.857-.042 1.287-.315 1.287-.812 0-.046-.113-.351-.338-.915-.227-.565-.475-1.197-.746-1.898l-.778-1.998c-.251-.632-.397-1.062-.442-1.288h-16.06a197.9 197.9 0 0 0-1.083 2.981l-.646 1.83c-.157.452-.271.78-.338.981-.07.203-.104.351-.104.442m16.468-11.656l-6.573-16.128-6.031 16.128h12.604zm23.986-.609c-.09.27-.135.744-.135 1.422 0 .453.417.96 1.253 1.525.835.565 1.918 1.095 3.252 1.591 1.331.5 2.856.916 4.574 1.254 1.716.34 3.457.508 5.219.508 3.387 0 5.871-.394 7.454-1.185 1.579-.789 2.371-1.93 2.371-3.423 0-.812-.69-1.389-2.066-1.726-1.379-.339-3.107-.612-5.186-.814-2.076-.203-4.313-.43-6.708-.677-2.396-.249-4.631-.7-6.709-1.357-2.077-.654-3.806-1.602-5.184-2.845-1.378-1.241-2.066-2.948-2.066-5.115 0-1.718.396-3.275 1.186-4.676.79-1.401 1.898-2.597 3.321-3.593 1.423-.992 3.151-1.77 5.184-2.334 2.033-.565 4.292-.85 6.776-.85 2.304 0 4.449.149 6.438.441 1.987.295 3.751.62 5.286.982 1.535.364 2.823.689 3.863.984 1.038.295 1.783.441 2.236.441.45 0 .812-.102 1.084-.307.271-.204.519-.441.744-.711l.747.271-4.677 9.42-.814-.406v-.747c0-.406-.439-.823-1.319-1.252-.882-.43-1.999-.814-3.355-1.152a41.86 41.86 0 0 0-4.54-.847 36.391 36.391 0 0 0-4.879-.339c-2.936 0-4.991.339-6.166 1.018-1.175.675-1.762 1.401-1.762 2.167 0 .77.406 1.346 1.219 1.729.814.384 1.875.668 3.185.847 1.31.182 2.801.328 4.473.441s3.39.282 5.15.507c1.763.227 3.479.543 5.149.949 1.671.405 3.162 1.006 4.473 1.794a9.557 9.557 0 0 1 3.184 3.12c.814 1.288 1.221 2.903 1.221 4.844 0 1.493-.305 2.959-.914 4.403-.61 1.448-1.649 2.747-3.117 3.899-1.471 1.15-3.435 2.065-5.896 2.742-2.464.68-5.523 1.016-9.184 1.016-2.845 0-5.296-.135-7.352-.404-2.056-.271-3.807-.599-5.251-.982-1.447-.384-2.587-.733-3.422-1.052-.838-.316-1.457-.472-1.864-.472-.27 0-.507.09-.711.27-.204.182-.418.383-.644.608l-.813-.203 5.014-12.062.678.338zm47.031 12.942c.857-.09 1.388-.234 1.592-.439.203-.203.306-.464.306-.78v-25.343h-11.656c-.361 0-.634.124-.812.372-.182.248-.318.758-.408 1.525h-.814V90.96h.814c.09.766.227 1.277.408 1.525.179.248.451.372.812.372h33.476c.361 0 .632-.124.813-.372.18-.249.316-.759.407-1.525h.812v12.061h-.812c-.091-.767-.228-1.277-.407-1.525-.182-.249-.452-.372-.813-.372H253.33v25.343c0 .316.102.577.307.78.2.205.732.35 1.591.439v.815H241.27v-.814zm30.559 0c.857-.09 1.39-.234 1.591-.439.204-.203.306-.464.306-.78V94.89c0-.315-.102-.577-.306-.78-.201-.202-.733-.348-1.591-.439v-.813h13.958v.813c-.858.092-1.388.238-1.592.439a1.061 1.061 0 0 0-.305.78v31.577c0 .316.102.577.305.78.204.205.733.35 1.592.439v.815h-13.958v-.814zm54.688-22.16c.042-.135.077-.282.1-.438.022-.158.033-.351.033-.576 0-.361-.303-.722-.914-1.084-.609-.361-1.424-.689-2.439-.984a28.572 28.572 0 0 0-3.489-.744 26.884 26.884 0 0 0-4.134-.307c-1.354 0-2.776.161-4.27.474-1.49.317-2.858.838-4.099 1.561a9.064 9.064 0 0 0-3.05 2.878c-.79 1.197-1.185 2.655-1.185 4.371 0 1.718.395 3.174 1.185 4.371a9.056 9.056 0 0 0 3.05 2.882 13.732 13.732 0 0 0 4.099 1.557c1.493.317 2.915.475 4.27.475.586 0 1.513-.102 2.777-.304a32.223 32.223 0 0 0 3.795-.849c1.266-.361 2.384-.767 3.357-1.219.969-.453 1.454-.927 1.454-1.424 0-.226-.046-.407-.135-.542a4.201 4.201 0 0 1-.272-.475l.747-.475 6.98 10.64-.814.477c-.091-.227-.215-.374-.372-.443a1.451 1.451 0 0 0-.576-.101c-.317 0-.948.192-1.897.576s-2.181.792-3.692 1.22c-1.514.43-3.288.812-5.319 1.151-2.033.34-4.314.507-6.845.507-2.712 0-5.399-.347-8.063-1.048-2.666-.699-5.062-1.809-7.184-3.322a17.752 17.752 0 0 1-5.152-5.69c-1.311-2.281-1.962-4.936-1.962-7.964 0-3.024.651-5.68 1.962-7.96a17.774 17.774 0 0 1 5.152-5.693c2.122-1.515 4.518-2.653 7.184-3.422a29.015 29.015 0 0 1 8.063-1.153c2.71 0 5.047.149 7.014.441 1.964.295 3.624.62 4.98.982 1.31.364 2.326.667 3.051.915.72.248 1.263.372 1.624.372.406 0 .745-.179 1.016-.54l.746.201-6.098 11.184-.678-.478z"/><path fill-rule="evenodd" clip-rule="evenodd" d="M182.996 76.174h-.936c-2.734 0-5.568-2.399-4.067-6.618l7.127-18.192h28.662l6.803 18.129c1.554 4.258-1.295 6.682-4.042 6.682h-.937v1.056h23.963v-1.066h-.893c-3.259 0-7.194-1.963-9.347-6.701L200.885 1.235h-.956c0 2.34-3.94 10.963-3.94 10.963l-24.133 57.273c-2.151 4.729-6.083 6.693-9.32 6.693h-.957v1.066h21.417v-1.056zm16.761-62.164l12.825 34.163h-26.209l13.384-34.163zM54.068 140.891c-22.236 0-28.089 16.604-26.191 26.287l1.063-.214c-1.578-9.681 6.615-22.881 24.278-22.881 19.685 0 29.473 16.287 29.473 34.166 0 22.246-14.471 36.932-34.899 36.932-19.579 0-34.794-13.516-34.794-38.211 0-11.064 2.979-24.904 12.97-31.477l-.638-.961c-13.183 6.685-20.526 18.925-20.526 34.036 0 23.842 18.728 39.807 43.2 39.807 24.684 0 42.879-16.179 42.879-39.914 0-20.967-14.681-37.57-36.815-37.57m83.324 74.298c-17.89-.434-30.02-14.377-30.02-35.771 0-21.18 11.918-35.336 30.624-35.336 12.788.009 23.216 6.604 26.448 19.036h.885l-2.145-15.038c-6.23-4.1-14.741-7.188-25.167-7.188-23.408 0-38.624 15.54-38.624 38.639 0 23.523 15.748 38.74 38 38.846 14.773 0 24.292-6.682 29.897-15.848l1.299-16.709h-.885c-2.422 21.8-15.204 29.323-30.312 29.369m89.982-15.5c-3.287 8.108-7.618 13.942-18.89 13.942h-15.259v-31.895h18.09a5.245 5.245 0 0 1 5.037 5.245v1.567l1.041.013v-16.846l-1.041.014v1.567a5.242 5.242 0 0 1-5.146 5.243h-17.981v-32.906h21.692a6.347 6.347 0 0 1 5.956 6.337v1.895l1.075.017v-13.439c-1.973.832-8.098 1.894-12.684 1.939H178.17l.016 1.057h1.345a6.819 6.819 0 0 1 6.78 6.095v59.598a6.82 6.82 0 0 1-6.816 6.69h-1.345l-.02 1.064h44.113l6.192-17.197h-1.061zm68.189 9.432l-28.447-68.23h-.957c0 2.34-3.94 10.966-3.94 10.966l-24.128 57.27c-2.151 4.735-6.085 6.694-9.323 6.694h-.957v1.064h21.416v-1.055h-.934c-2.734 0-5.57-2.396-4.068-6.618l7.129-18.19h28.658l6.806 18.129c1.553 4.263-1.296 6.68-4.042 6.68h-.937v1.055h23.962v-1.064h-.89c-3.26-.002-7.197-1.966-9.348-6.701m-42.958-21.293l13.384-34.16 12.823 34.16h-26.207zm112.701-45.445l.015 1.062h1.963a6.572 6.572 0 0 1 6.57 6.451v52.784l-57.945-61.895h-1.048s.976 6.03.976 13.3v55.295a6.567 6.567 0 0 1-6.564 6.446h-1.967l-.016 1.061h21.92l-.019-1.061h-1.961a6.574 6.574 0 0 1-6.568-6.369v-52.994l58.028 61.914h.966s-.969-6.72-.969-13.58v-54.989a6.572 6.572 0 0 1 6.566-6.363h1.966l.014-1.062h-21.927z"/></svg>