<svg width="475" height="475" xmlns="http://www.w3.org/2000/svg"><g fill="#FFF" fill-rule="evenodd"><path d="M346.087 63.32c8.946.578 39.613-3.503 57.05-.645 11.624 1.906 20.499 6.723 26.623 14.452-19.347.886-29.628 3.6-30.842 8.14-1.82 6.81 26.783 16.696 39.746 43.537 12.963 26.841 9.844 65.746-9.374 84.137-19.218 18.391-36.04 26.864-30.341 42.994 3.8 10.754 1.945 23.081-5.564 36.982-.727-4.527-2.54-9.308-5.441-14.346-4.35-7.556-4.157-3.545-9.864-12.834-3.805-6.193-4.458-10.641-1.958-13.346-7.231-2.905-13.194-6.356-17.889-10.355-4.695-3.998-11.881-7.754-21.56-11.266 14.087-5.037 25.235-6.453 33.442-4.248 12.312 3.307 20.128 13.687 32.875-8.45 12.748-22.136 2.062-34.89-15.812-49.729-11.917-9.892-23.322-14.88-34.216-14.962-7.938.805-12.055 5.731-12.35 14.777-.441 13.568 12.04 17.742 2.325 20.243-9.715 2.5-19.744-14.874-23.154-27.652a133.245 133.245 0 0 0-9.362-24.804c-4.296 2.138-12.33.257-24.1-5.642-17.656-8.849-21.074-14.786-40.468-15.432-19.393-.647-23.669.03-35.1-4.866-11.433-4.896-.158-9.623 5.846-11.66 4.004-1.359 10.036-2.932 18.098-4.72.309-5.697 3.024-10.746 8.144-15.15 7.681-6.606 34.278-15.886 54.354-17.794 20.076-1.907 39.946 2.061 48.892 2.64zm-81.698 23.298a3.805 3.805 0 0 0-3.8 3.81 3.805 3.805 0 0 0 3.8 3.81c2.1 0 3.801-1.706 3.801-3.81a3.805 3.805 0 0 0-3.8-3.81z"/><path d="M58.172 65.864c-4.798 13.183-10.9 20.557-7.268 47.18 2.422 17.748 6.333 25.87 11.735 24.365 2.543 15.09 3.038 23.49 1.485 25.202-4.268 4.707-9.022-2.495-18.186 2.855s-15.305 17.194-11.472 23.887c3.834 6.693 16.276 2.878 23.933.971 7.657-1.906 6.692-14.332 13.393-14.327 4.467.003 9.986 2.054 16.557 6.155-2.91.277-2.862 3.43.145 9.46 3.33 6.677 5.196 16.605 15.455 26.128 4.122 3.827 14.716 8.045 19.295 11.148 15.973 10.828 37.6 9.06 45.273 6.43 7.672-2.629-10.188-8.459-19.157-16.26-8.968-7.802-11.454-9.245-22.986-17.22-7.688-5.315-17.835-10.957-30.44-16.925 13.745 2.63 27.835 1.54 42.269-3.27 14.433-4.81 26.563-14.724 36.388-29.74 5.135 1.869 10.676 2.925 16.625 3.168 8.923.365 13.942-.55 17.812-1.945 3.87-1.395 7.706-5.23 8.294-10.397.588-5.167-1.447-5.652-3.555-7.815-1.405-1.443-4.705-3.33-9.901-5.663l-2.232-2.802s-6.612-3.605-13.087-.075c-4.494 2.45-8.32 6.59-11.479 12.417 3.302-8.463 5.53-15.79 6.687-21.978 1.734-9.283 7.646-18.154 4.771-21.98-2.874-3.824-10.132-1.423-16.919-4.968-4.524-2.364-11.97-4.858-22.338-7.483 9.38-.188 16.936-2.446 22.666-6.772 1.604-1.211 4.131-3.723 2.216-5.636-.958 0 4.43-5.58 2.974-8.624-1.456-3.044-4.182-5.139-11.939-6.113-7.532-.947-7.777-1.45-14.848 3.959l-.652.5c-5.142 3.96-8.826 10.802-11.05 20.525-18.404.7-32.252 3.427-41.544 8.178-9.293 4.751-19.333 17.701-30.12 38.85l3.354-17.927c1.003-10.592 3.64-21.34 7.913-32.245 6.409-16.355 14.25-30.03 8.548-32.105-5.702-2.075-23.817 7.708-28.615 20.892z" fill-rule="nonzero"/><path d="M248.456 150.417c5.874 0 10.91 9.246 15.106 21.013 4.196 11.768 5.035 16.81 9.23 21.854 4.197 5.043 15.946 1.681 25.177 0s20.98 2.522 26.015 6.724c5.035 4.203 1.679 5.884-13.427 12.608-15.106 6.725-21.82 15.13-21.82 21.854 0 6.724 5.036 14.29 11.75 25.216 6.713 10.927 6.713 15.13 4.196 17.651-2.518 2.522-10.07 0-22.659-4.202-12.588-4.203-21.82-15.13-30.211-16.81-8.392-1.682-15.106 5.883-25.176 16.81-10.07 10.927-16.784 13.448-20.98 13.448-4.196 0-3.357-11.767 0-22.694s9.231-22.695 10.91-29.419c1.678-6.724-7.553-8.405-14.267-12.608-6.714-4.203-21.82-16.81-23.498-20.173-1.678-3.362-1.678-10.927 17.624-5.883 19.301 5.043 28.532 2.521 33.568 0 5.035-2.522 7.552-10.087 7.552-19.333 0-9.246 5.036-26.056 10.91-26.056zm-36.925 121.037a2.52 2.52 0 0 0-2.517 2.521 2.52 2.52 0 0 0 2.517 2.522 2.52 2.52 0 0 0 2.518-2.522 2.52 2.52 0 0 0-2.518-2.521zm82.242-6.725a2.52 2.52 0 0 0-2.518 2.522 2.52 2.52 0 0 0 2.518 2.522 2.52 2.52 0 0 0 2.518-2.522 2.52 2.52 0 0 0-2.518-2.522zm-75.109-7.564a2.94 2.94 0 0 0-2.937 2.941 2.94 2.94 0 0 0 2.937 2.942 2.94 2.94 0 0 0 2.938-2.942 2.94 2.94 0 0 0-2.938-2.941zm62.94-3.363a2.94 2.94 0 0 0-2.937 2.942 2.94 2.94 0 0 0 2.938 2.942 2.94 2.94 0 0 0 2.937-2.942 2.94 2.94 0 0 0-2.937-2.942zm-52.45-11.767a4.2 4.2 0 0 0-4.196 4.203 4.2 4.2 0 0 0 4.196 4.202 4.2 4.2 0 0 0 4.196-4.202 4.2 4.2 0 0 0-4.196-4.203zm41.96-1.681a4.2 4.2 0 0 0-4.196 4.203 4.2 4.2 0 0 0 4.197 4.202 4.2 4.2 0 0 0 4.196-4.202 4.2 4.2 0 0 0-4.196-4.203zm-31.05-14.29a5.04 5.04 0 0 0-5.035 5.044 5.04 5.04 0 0 0 5.035 5.043 5.04 5.04 0 0 0 5.035-5.043 5.04 5.04 0 0 0-5.035-5.043zm20.14 0a5.04 5.04 0 0 0-5.034 5.044 5.04 5.04 0 0 0 5.035 5.043 5.04 5.04 0 0 0 5.035-5.043 5.04 5.04 0 0 0-5.035-5.043zm4.197-14.288a5.04 5.04 0 0 0-5.035 5.043 5.04 5.04 0 0 0 5.035 5.043 5.04 5.04 0 0 0 5.035-5.043 5.04 5.04 0 0 0-5.035-5.043zm-28.533-.84a5.04 5.04 0 0 0-5.035 5.042 5.04 5.04 0 0 0 5.035 5.044 5.04 5.04 0 0 0 5.035-5.044 5.04 5.04 0 0 0-5.035-5.043zm-17.623-.841a4.2 4.2 0 0 0-4.196 4.202 4.2 4.2 0 0 0 4.196 4.203 4.2 4.2 0 0 0 4.196-4.203 4.2 4.2 0 0 0-4.196-4.202zm-15.525-3.362a2.94 2.94 0 0 0-2.938 2.941 2.94 2.94 0 0 0 2.938 2.942 2.94 2.94 0 0 0 2.937-2.942 2.94 2.94 0 0 0-2.937-2.941zm78.465-3.363a4.2 4.2 0 0 0-4.196 4.203 4.2 4.2 0 0 0 4.196 4.203 4.2 4.2 0 0 0 4.196-4.203 4.2 4.2 0 0 0-4.196-4.203zm-31.05-1.68a5.04 5.04 0 0 0-5.036 5.043 5.04 5.04 0 0 0 5.035 5.043 5.04 5.04 0 0 0 5.036-5.043 5.04 5.04 0 0 0-5.036-5.044zm49.093-.841a2.94 2.94 0 0 0-2.937 2.942 2.94 2.94 0 0 0 2.937 2.942 2.94 2.94 0 0 0 2.937-2.942 2.94 2.94 0 0 0-2.937-2.942zm-107.838 0a2.52 2.52 0 0 0-2.517 2.521 2.52 2.52 0 0 0 2.517 2.522 2.52 2.52 0 0 0 2.518-2.522 2.52 2.52 0 0 0-2.518-2.521zm124.202-.84a2.52 2.52 0 0 0-2.517 2.52 2.52 2.52 0 0 0 2.517 2.522 2.52 2.52 0 0 0 2.518-2.521 2.52 2.52 0 0 0-2.518-2.522zm-63.78-14.29a4.2 4.2 0 0 0-4.195 4.203 4.2 4.2 0 0 0 4.196 4.202 4.2 4.2 0 0 0 4.196-4.202 4.2 4.2 0 0 0-4.196-4.203zm.42-13.448a2.94 2.94 0 0 0-2.937 2.941 2.94 2.94 0 0 0 2.937 2.942 2.94 2.94 0 0 0 2.938-2.942 2.94 2.94 0 0 0-2.938-2.941zm-2.937-12.608a2.52 2.52 0 0 0-2.517 2.521 2.52 2.52 0 0 0 2.517 2.522 2.52 2.52 0 0 0 2.518-2.522 2.52 2.52 0 0 0-2.518-2.521z"/><path d="M42.53 231.12c6.635-4.926 63.313 15.636 85.88 29.947 22.568 14.312 57.668 33.686 58.054 44.33.387 10.643-17.427 13.762-26.11 25.686-8.685 11.925-2.38 23.734 1.492 26.742 3.872 3.008 14.144 6.31 20.73 4.852 6.586-1.458 13.252-.036 18.16 3.486 3.27 2.348 6.581 5.356 9.932 9.023 3.928 1.072 6.876 1.884 8.845 2.437 1.968.552 3.742 2.217 5.32 4.995-6.497-1.378-12.208-2.067-17.134-2.067-7.389 0-4.913 1.33-20.133 10.547-15.219 9.217-29.287 8.4-40.501 8.4-11.215 0-26.659-2.238-29.928-2.887-3.27-.65-6.592 3.312-7.407 5.733-.816 2.42 2.316 3.44 6.865 4.063 4.549.622 9.748-.343 17.688.243 7.94.586 18.971 3.144 21.811 3.951 2.84.807 4.497 2.109 3.043 2.28-1.453.172-6.902-.297-9.844.166-2.941.463-.877 2.798-4.013 2.37-3.136-.429-5.744-2.87-11.019-4.525-5.275-1.654-15.176-1.214-18.98-1.155-3.805.059-8.958-3.416-9.895-5.401-.936-1.986 3.22-5.56 2.895-7.394-.325-1.833-6.611-3.857-9.885-3.733-3.274.125-7.205 3.78-8.678 6.982-.982 2.134-1.299 9.582-.95 22.342 2.327 2.499 5.66 4.233 9.996 5.204 6.506 1.457 11.833 2.302 12.51 3.074.678.773-3.194 1.503-7.871 1.435a69.329 69.329 0 0 1-9.145-.73c-2.644-1.006-4.513-2.068-5.605-3.185-1.638-1.676-4.465-5.182-6.447-7.053-1.32-1.247-.464-3.022 2.57-5.325.376-4.181.554-9.08.533-14.696-.02-5.616 3.112-9.316 9.398-11.1-16.187-8.061-27.243-13.454-33.167-16.178-8.886-4.086-18.488-5.665-24.695-6.151-6.208-.486-9.04-1.574-8.2-2.721.84-1.147 12.771-.319 25.296-2.43 8.35-1.407 18.105-3.71 29.265-6.906-1.562-2.238-2.374-4.507-2.438-6.807-.096-3.45 14.09-16.638 23.76-28.763 6.447-8.084 9.136-14.186 8.067-18.307-7.353-3.307-13.6-6.472-18.739-9.492-7.71-4.53-19.265-12.8-28.394-15.415-9.128-2.617-17.192-5.45-13.507-8.85 3.685-3.4 14.356-2.058 15.947-3.705 1.59-1.647-4.33-5.886-10.072-12.023-5.741-6.137-21.933-16.362-15.3-21.288zm148.804 138.107a2.66 2.66 0 0 0-2.653 2.668 2.66 2.66 0 0 0 2.653 2.668 2.66 2.66 0 0 0 2.653-2.668 2.66 2.66 0 0 0-2.653-2.668z" fill-rule="nonzero"/><path d="M369.01 276.228c4.982 4.967 14.948 18.875 14.948 28.808 0 9.934-1.993 21.855-10.962 22.848-5.98.662-9.967.662-11.96 0 1.329 13.908-2.99 24.504-12.956 31.788-14.95 10.928-13.952 4.967-18.936 12.914-4.983 7.947-5.98 23.842-12.956 26.822-6.976 2.98-15.945.993-22.922 7.947-2.466 2.458-.69 9.897-4.983 20.86-1.756 4.486-3.015 7.931-6.976 11.921-2.699 2.719-9.343 5.368-19.932 7.947 7.863-2.825 13.51-5.805 16.942-8.94 3.431-3.135 5.757-7.44 6.976-12.914-1.328 0-2.325.662-2.99 1.987-.664 1.324-3.322 3.642-7.972 6.953l5.98-6.953c-1.33-.663-1.662-1.656-.997-2.98.664-1.325 1.66-1.987 2.99-1.987-1.994-1.325-2.658-2.65-1.994-3.974.665-1.324 1.33-1.986 1.994-1.986-1.33-1.987-1.33-3.643 0-4.967 1.993-1.987.996-4.967 1.993-6.954.996-1.987 1.993-5.96 3.986-7.947s8.97-7.947 10.963-10.927c1.329-1.987 3.322-3.312 5.98-3.974l1.993-7.947c-1.329-1.324-1.661-2.318-.997-2.98.665-.662 1.661-3.311 2.99-7.947-3.986 5.96-6.976 10.596-8.97 13.907-2.99 4.967-17.938 8.94-19.932 12.914-1.993 3.974-1.993 11.92-7.973 16.888-5.98 4.967-11.959 7.947-14.949 9.934-2.99 1.986 0 10.927-6.976 19.867-4.651 5.96-10.63 8.94-17.94 8.94 7.974-2.648 12.957-5.629 14.95-8.94 2.99-4.967 2.99-18.874 7.973-22.848 4.983-3.973 5.98-2.98 11.96-8.94 5.979-5.96 4.982-12.914 9.965-16.888 4.984-3.973 15.946-8.94 17.94-10.927 1.328-1.324 2.99-5.298 4.983-11.92-3.322 1.324-5.316 1.655-5.98.993-.997-.993-.997 1.987-2.99 1.987-1.993 0-1.993-1.987-3.986.993-1.994 2.98-2.99 3.974-3.987 3.974-.996 0-3.986 2.98-3.986 3.973 0 .994 0 2.98-.997 3.974-.997.993-.997 2.98-1.993 3.973-.997.994-2.99 4.967-4.983 6.954-1.993 1.987-3.987 4.967-4.983 4.967h-7.973c3.322-.662 5.647-1.987 6.976-3.974 1.993-2.98.997-5.96 1.993-6.953.997-.994.997-3.974 1.994-5.96.664-1.325 1.328-1.987 1.993-1.987-.665-1.987-.665-3.312 0-3.974l1.993-1.987c.664-1.324.997-2.318.997-2.98 0-.662.664-1.324 1.993-1.987 0-1.324.332-2.317.996-2.98.665-.662 1.661-.993 2.99-.993-1.329-.662-.996-1.656.997-2.98 1.993-1.325 2.99-1.656 2.99-.994 1.329 0 2.325-.662 2.99-1.986.664-1.325 1.66-1.325 2.99 0 .664-1.987 1.328-2.98 1.993-2.98.664 0 1.66.33 2.99.993-.665-1.325 0-2.318 1.993-2.98 1.993-.663 2.99-.331 2.99.993l3.986-3.973c-8.637 1.324-14.285 2.649-16.942 3.973-3.987 1.987-9.967 3.974-13.953 9.934-3.986 5.96-17.94 16.887-27.905 12.914-9.966-3.974-12.956-11.92-21.926-13.907-5.98-1.325-11.295-1.325-15.946 0 8.638-4.636 15.614-4.967 20.93-.994 7.972 5.96 13.952 11.92 20.928 11.92 6.976 0 19.933-8.94 23.919-13.907 3.986-4.967 14.95-12.914 18.936-12.914 2.657 0 6.644-.662 11.96-1.986 3.321-4.636 5.647-7.285 6.975-7.947 1.33-.663 1.994-1.656 1.994-2.98-3.322 0-5.316.662-5.98 1.986-.665 1.325-1.661 2.65-2.99 3.974-.664 2.649-1.993 3.973-3.986 3.973-1.994 0-3.655-.33-4.983-.993-.665 1.324-1.994 1.987-3.987 1.987s-3.654-.331-4.983-.994c.664 1.987.332 2.98-.997 2.98h-3.986c1.329.663 1.329 1.656 0 2.98-1.329 1.325-2.658 2.318-3.987 2.98-.664 1.987-1.66 2.98-2.99 2.98-1.328 0-2.325.663-2.99 1.988-.664 3.973-2.99 5.629-6.976 4.967-5.98-.994-11.959-4.967-17.939-9.934s-27.905-4.967-30.895-4.967c-1.993 0-11.295 2.649-27.905 7.947 10.63-7.285 19.6-10.927 26.909-10.927 2.491 0 6.377.032 8.97 0 8.812-.111 16.307-.09 20.928 2.98 5.98 3.973 11.96 10.927 16.943 10.927 4.983 0 4.983-1.987 7.973-5.96 2.99-3.974 2.99-9.934 6.976-10.927 2.657-.663 4.983-1.987 6.976-3.974 1.993-1.324 3.654-1.987 4.983-1.987 1.329 0 2.658-.662 3.987-1.987l5.98-2.98c0-2.649.332-4.304.996-4.967.664-.662 1.329-1.655 1.993-2.98-1.329-1.324-1.329-2.98 0-4.967 1.329-1.986 2.326-3.31 2.99-3.973-1.329-1.987-.997-3.643.997-4.967 2.99-1.987 5.98-2.98 5.98-2.98v-.054c.004-.475.068-3.92.996-3.92h4.983l1.993-1.986c-1.329-1.325-3.986-1.325-7.973 0-5.98 1.986-10.962 6.953-12.956 13.907-1.993 6.954-2.99 12.914-7.973 13.907-4.983.994-15.945 3.974-18.935 7.947-2.99 3.974-1.993 3.974-8.97 10.927-6.976 6.954-16.942-6.953-25.912-3.973-8.97 2.98-15.946.993-15.946-6.954 0-5.298-2.325-13.245-6.976-23.84 2.536 1.08 4.861 3.73 6.976 7.946 2.211 4.408 1.578 19.888 7.973 20.861 6.396.973 5.98-1.987 11.96-1.987s12.256 5.23 14.949 5.96c6.676 1.813 12.956-12.913 17.939-14.9 4.983-1.987 12.956-2.98 15.946-4.967 2.99-1.987 3.986-1.987 5.98-9.934 1.993-7.947 3.986-13.907 9.966-16.887 3.986-1.987 10.962-3.312 20.929-3.974-5.316-14.57-1.994-22.848 9.966-24.834 17.939-2.98 27.905 1.986 32.888 6.953zm-48.835 110.266-3.987 1.986c-1.328.663-1.993 1.325-1.993 1.987 0 .994-1.993 1.987-3.986 1.987s-.997.993-2.99.993c-1.993 0-2.99 1.987-4.983 2.98-1.329.663-3.322.994-5.98.994.665 0 .332.662-.996 1.987-1.33 1.324-1.994 2.318-1.994 2.98 1.994-.662 4.319-1.656 6.977-2.98 3.986-1.987 10.962 0 14.949-3.974 2.657-2.649 4.319-5.629 4.983-8.94zm27.905-33.775c-1.993 0-3.654.33-4.983.993l-1.993.993c-.665 1.325-1.993 2.65-3.987 3.974-1.993 1.325-2.99 1.325-2.99 0l-1.993.993c-1.993.994-3.986 0-3.986 1.987s-.997 2.98-2.99 3.974c-1.993.993.997 0 0 2.98-.664 1.987-.997 3.642-.997 4.967l2.99-5.96c.997-1.987 3.987-2.98 9.966-5.96 3.987-1.988 7.641-4.968 10.963-8.941zm-1.993-26.822c-.664.663-1.329.994-1.993.994-.997 0-1.994 3.973-3.987 3.973s-.996.994-.996 3.974c0 2.98-1.994 1.987-3.987 3.973-1.993 1.987 0 2.98-1.993 3.974-1.329.662-1.661 1.987-.997 3.973 3.987-3.31 7.309-6.622 9.966-9.933 2.658-3.312 3.987-6.954 3.987-10.928z"/></g></svg>