<svg xmlns="http://www.w3.org/2000/svg" width="564" height="578"><g fill="none"><path fill="#FFF" d="M.529 435.63c4.528-7.938 9.615-12.697 15.262-14.276 5.647-1.579 14.105-3.9 25.374-6.963 9.612-10.48 19.11-19.075 28.493-25.785 14.076-10.066 33.2-14.13 52.092-9.962 18.893 4.167 48.359-5.268 59.467-13.865 11.109-8.596 29.194-42.344 4.282-76.42-24.911-34.077-76.012-42.991-74.903-73.406 1.11-30.415 101.798-85.782 166.536-126.68C341.869 47.375 504.459-11.383 523.49 2.695c19.031 14.078-27.418 43.298-43.889 60.835-16.47 17.537-33.454 29.65-28.891 34.358 4.562 4.707 35.175.874 45.747 10.59 10.57 9.716-12.563 17.812-38.75 25.288-26.186 7.476-59.335 31.104-81.45 44.052-14.745 8.632-32.663 17.674-53.756 27.127-3.066 11.775 4.647 29.213 23.14 52.314 27.74 34.652 68.437 72.34 68.161 82.197-.183 6.572-2.515 13.056-6.995 19.451 32.015 9.136 59.998 15.715 83.95 19.737 35.93 6.033 70.157 3.667 72.568 6.944 2.41 3.277-5.716 6.387-23.523 7.775-17.808 1.389-45.35 5.903-70.842 17.578-16.994 7.784-48.709 23.195-95.144 46.235 18.032 5.096 27.018 15.67 26.958 31.719-.06 16.049.45 30.047 1.53 41.995 8.704 6.582 11.161 11.656 7.37 15.22-5.684 5.345-13.793 15.364-18.492 20.154-3.133 3.193-8.493 6.227-16.08 9.102-8.542 1.26-17.287 1.954-26.232 2.084-13.418.195-24.523-1.89-22.58-4.098 1.943-2.208 17.225-4.623 35.886-8.786 12.44-2.774 22-7.731 28.678-14.87.999-36.467.09-57.75-2.728-63.85-4.226-9.149-15.5-19.594-24.893-19.95-9.392-.355-27.423 5.428-28.356 10.666-.933 5.24 10.99 15.457 8.304 21.13-2.687 5.674-17.47 15.603-28.383 15.435-10.914-.168-39.318-1.426-54.45 3.302-15.13 4.729-22.612 11.704-31.609 12.928-8.997 1.225-3.074-5.447-11.512-6.77-8.439-1.323-24.07.017-28.24-.474-4.169-.49.583-4.21 8.73-6.516 8.147-2.307 39.794-9.615 62.57-11.291 22.776-1.676 37.691 1.082 50.74-.696 13.05-1.777 22.032-4.693 19.694-11.61-2.34-6.917-11.87-18.238-21.248-16.383-9.38 1.855-53.682 8.248-85.853 8.248-32.171 0-72.526 2.336-116.186-24.002-43.659-26.34-36.557-30.14-57.753-30.14-14.13 0-30.515 1.969-49.152 5.907z"/><path fill="#00D1D9" d="M333.21 462H305.5c-2.339 0-5.891-1.275-10.658-3.825-69.567.44-104.928.582-106.085.425-1.734-.236-1.575-2.534-1.575-5.1 0-2.567.334-3.137 1.575-3.4.828-.175 36.19-.034 106.085.425 4.845-3.683 8.398-5.525 10.658-5.525h27.71c5.991.112 8.986 2.945 8.986 8.5 0 5.554-2.995 8.387-8.985 8.5zm-10.231-8.713c0 3.03 2.666 4.038 4.903 4.038.115 0 0-8.075 0-8.075-2.237 0-4.903 1.008-4.903 4.038zm13.054 0c0-3.064-2.666-4.037-4.903-4.037 0 0-.115 8.075 0 8.075 2.237 0 4.903-.973 4.903-4.038zm-30.96 0c0 3.03 2.667 4.038 4.903 4.038.116 0 0-8.075 0-8.075-2.236 0-4.902 1.008-4.902 4.038zm13.055 0c0-3.064-2.666-4.037-4.903-4.037 0 0-.116 8.075 0 8.075 2.237 0 4.903-.973 4.903-4.038zm80.952-28.465c1.107-1.702-20.095 0-20.095-1.812s20.096-1.454 20.096-2.961-20.096-1.618-20.096-3.303c0-1.685 20.096-1.508 20.096-3.194 0-1.687-20.096-1.281-20.096-2.932 0-1.65 20.734-1.613 20.096-2.412-.639-.8-10.491-9.518-28.214-9.44-17.723.076-23.6 6.843-27.578 9.44-3.978 2.597-8.664 4.487-24.774 4.063-10.74-.283-20.816-.442-30.229-.476-16.397.051-51.335.134-52.944.476-1.61.342-2.308 1.453-2.308 4.795 0 3.342.059 4.68 2.308 4.988 2.248.306 40.65.97 52.944.956 12.294-.013 25.643-.892 30.229-.956 4.585-.065 20.346.064 24.774 2.768 4.428 2.705 8.48 10.48 27.874 10.316 19.394-.164 26.812-8.613 27.918-10.316zm-162.154-33.79c7.216.107 12.782.107 16.698 0 5.875-.16 15.368-1.181 19.684-1.15 4.315.03 11.409-.326 13.816 0 1.605.217 2.93.217 3.972 0 .093-1.009.093-1.912 0-2.71-.138-1.198-2.61-8.373-3.11-11.718-.502-3.345-.094-6.998 2.84-11.858 2.934-4.86 10.667-11.75 13.938-14.98 3.27-3.228 6.771-8.328 6.873-11.783.102-3.455-1.323-5.796-3.68-6.617-2.357-.82-4.885-.261-7.903 1.3-3.017 1.56-8.813 5.182-10.245 5.855-1.432.674-2.785 2.77-3.534.15-.75-2.62 2.736-7.75 4.615-14.492 1.878-6.742 4.502-14.641 4.292-19.03-.21-4.387-.947-9.582-4.292-10.325-3.346-.744-6.645-.164-9.316 4.778-1.781 3.295-3.106 8.707-3.975 16.237-.277 2.923-.903 4.496-1.876 4.72-1.46.333-.049-2.953.014-6.971.062-4.018.844-8.581.787-13.033-.056-4.452-1.632-10.199-5.45-12.043-3.82-1.845-5.617.171-7.071 1.805-1.454 1.634-2.13 8.232-2.223 11.938-.095 3.706.187 7.398.136 10.493-.05 3.094 1.391 7.834-.136 7.81-1.528-.024-2.08-5.835-2.49-11.486-.408-5.651-.07-16.236-7.646-15.885-7.576.352-6.866 8.334-6.706 10.322.106 1.325.661 7.85 1.665 19.575a383.46 383.46 0 0 0-4.116-9.162c-2.214-4.77-4.562-10.073-9.645-8.772-5.083 1.3-4.206 10.274-3.626 13.211.328 1.667 1.782 7.022 4 11.744 1.688 3.596 4.174 6.622 4.865 8.566 1.597 4.496 4.29 7.296 5.157 11.664.868 4.368.571 5.687-.751 10.515-1.322 4.827-2.996 11.799-4.406 19.72-.94 5.282-1.326 9.152-1.155 11.612z"/><g fill="#00D1D9" transform="translate(155 382)"><circle cx="28.467" cy="37.8" r="4.2"/><circle cx="45.267" cy="36.4" r="4.2"/><circle cx="41.767" cy="29.167" r="4.9"/><circle cx="55.3" cy="21.233" r="4.9"/><path d="M51.084 29.131c2.152 0 3.842.25 3.842-1.901a3.896 3.896 0 0 0-7.793 0c0 2.152 1.799 1.901 3.95 1.901zm-25.873-9.119c0-2.767-.322-5.079 2.445-5.079a5.01 5.01 0 0 1 0 10.02c-2.767 0-2.445-2.174-2.445-4.94zM14 34.743c0-2.766.28-3.476 3.046-3.476 2.767 0 5.981 1.54 5.981 4.306a5.01 5.01 0 0 1-5.01 5.01c-2.766 0-4.017-3.073-4.017-5.84z"/><circle cx="28.467" cy="37.8" r="4.2"/><circle cx="21.933" cy="50.4" r="3.733"/><circle cx="22.867" cy="30.8" r="3.733"/><circle cx="39.2" cy="47.133" r="4.2"/><circle cx="50.167" cy="57.167" r="6.3"/><circle cx="15.633" cy="19.367" r="6.3"/><path d="M42.335 17.128c3.535 0 4.945-2.558 4.945-6.093 0-3.536-1.666-5.902-5.202-5.902-3.535 0-6.145 2.059-6.145 5.594a6.401 6.401 0 0 0 6.402 6.401zm19.272 29.899c3.535 0-.197-5.916-.197-9.451 0-3.536 1.004-6.31-2.532-6.31-3.535 0-6.145 2.059-6.145 5.594 0 3.536 5.339 10.167 8.874 10.167zM9.932 58.97C6.87 57.202 5.562 48.79 7.33 45.73c1.768-3.062 5.057-3.54 8.118-1.772 3.062 1.768.806 3.668-.961 6.73-1.768 3.062-1.494 10.05-4.555 8.283z"/></g><g fill="#00D1D9" transform="translate(70 378)"><circle cx="40.26" cy="53.46" r="5.94"/><circle cx="64.02" cy="51.48" r="5.94"/><circle cx="59.07" cy="41.25" r="6.93"/><circle cx="78.21" cy="30.03" r="6.93"/><path d="M72.247 41.2c3.043 0 5.434.354 5.434-2.69a5.51 5.51 0 1 0-11.021 0c0 3.044 2.543 2.69 5.587 2.69zM35.656 28.303c0-3.913-.455-7.183 3.458-7.183a7.085 7.085 0 0 1 0 14.17c-3.913 0-3.458-3.074-3.458-6.987zM19.8 49.137c0-3.913.395-4.917 4.308-4.917s8.459 2.177 8.459 6.09a7.085 7.085 0 0 1-7.085 7.086c-3.913 0-5.682-4.346-5.682-8.259z"/><circle cx="40.26" cy="53.46" r="5.94"/><circle cx="31.02" cy="71.28" r="5.28"/><circle cx="32.34" cy="43.56" r="5.28"/><circle cx="55.44" cy="66.66" r="5.94"/><circle cx="70.95" cy="80.85" r="8.91"/><circle cx="22.11" cy="27.39" r="8.91"/><path d="M59.873 24.224c5 0 6.995-3.618 6.995-8.618S64.51 7.26 59.51 7.26s-8.69 2.91-8.69 7.91a9.053 9.053 0 0 0 9.053 9.054zM87.13 66.509c5 0-.278-8.366-.278-13.366s1.419-8.923-3.582-8.923c-5 0-8.69 2.91-8.69 7.91 0 5.001 7.55 14.379 12.55 14.379zM14.046 83.4c-4.33-2.5-6.18-14.396-3.68-18.726 2.5-4.33 7.152-5.006 11.482-2.506 4.33 2.5 1.14 5.188-1.36 9.518-2.5 4.33-2.112 14.215-6.442 11.715z"/></g><path fill="#00D1D9" d="M245.942 461.993L350.67 357.266l1.551-.676.865.865-.042-1.223.706-.308.875.876-.06-1.23.721-.315.85.849-.006-1.217.723-.315.868.868-.17-1.172.744-.324.926.65-.043-1.035.699-.275.753.753-.023-1.168.483-.143 26.885 11.924-3.79 8.086c-14.33-6.184-21.68-9.358-22.052-9.523a3.36 3.36 0 0 1-1.04-.745c-.03.646-.098.99-.202 1.034-.104.042-.4-.181-.89-.67.02.715-.022 1.091-.124 1.129-.101.038-.448-.214-1.04-.755.03.62.019.986-.036 1.1-.054.114-.282.25-.683.409L253.39 469.44l-7.449-7.448zm185.345-74.843a.343.343 0 0 1 .103-.017c1.084 0 2.583 5.32 2.583 11.884 0 6.563-1.499 11.883-2.583 11.883a.343.343 0 0 1-.103-.016v.016h-9.714v-.003a1.857 1.857 0 0 1-.103.003c-2.568 0-4.65-5.32-4.65-11.883 0-6.563 2.082-11.884 4.65-11.884.035 0 .069.001.103.003v-.003h9.714v.017zM204.15 372.713a.343.343 0 0 1-.017-.103c0-1.084 5.32-2.583 11.884-2.583 6.563 0 11.883 1.499 11.883 2.583 0 .035-.005.07-.016.103h.016v9.714h-.003c.002.034.003.068.003.103 0 2.568-5.32 4.65-11.883 4.65-6.563 0-11.884-2.082-11.884-4.65 0-.035.001-.069.003-.103h-.003v-9.714h.017z"/></g></svg>