<svg xmlns="http://www.w3.org/2000/svg" width="559" height="266"><g fill="none"><path fill="#FFF" d="M11.159 190.97c-4.462-2.545-7.052-4.225-7.77-5.041-1.076-1.224.017-2.742.901-5.208.885-2.465 14.675-44.584 26.796-83.165 12.121-38.581 29.588-75.547 48.88-89.941 19.292-14.395 50.875-3.774 69.779 3.128 18.903 6.901 75.45 37.63 92.758 47.81 17.307 10.181 64.586 39.46 78.916 51.664 14.331 12.204 43.933 39.976 55.134 41.56 11.2 1.583 10.195-15.042 7.159-32.339-3.037-17.297-7.785-41.05-4.011-60.885 3.773-19.835 17.339-37.713 25.89-42.296 8.553-4.583 16.965-3.635 10.3 4.34-6.663 7.974-3.075 34.156 4.666 47.795 7.742 13.639 22.719 25.95 29.985 38.533 4.843 8.39 7.777 16.985 8.802 25.786 11.15-.322 22.552 3.558 34.207 11.64 17.482 12.123 16.528 42.137 35.8 44.03 19.273 1.894 26.053-4.445 28.592-.47 2.539 3.976-19.371 22.622-39.843 24.902-20.472 2.28-27.47-1.672-57.47-11.725-30-10.053-43.223 6.686-77.484 25.986-34.261 19.3-73.125 40.396-151.886 38.418-78.76-1.979-144.994-18.605-174.59-24.218-29.596-5.614-52.453-19.65-55.199-33.847-1.83-9.464-.89-14.904 2.825-16.32l6.863-.137z"/><path fill="#00D1D9" d="M146.434 135.097c-1.72.475-2.223 1.786-1.508 3.932 1.072 3.22 1.149 5.414 3.357 11.034 2.21 5.62 1.643 14.545-3.772 24.08-5.415 9.534-12.95 10.18-18.042 12.613-5.093 2.435-2.376 4.535 0 8.578 2.376 4.043 4.113 6.292 4.113 15.156s-.894 11.34-6.451 19.631c-3.704 5.527-9.683 8.347-17.936 8.458l-1.098 2.609-10.243-6.603c.419-.395-.82-1.882-3.715-4.464-4.342-3.872-9.047-4.253-17.774-7.917-5.818-2.442-11.455-2.978-16.913-1.608l-9.225-2.906-1.924-4.677c-6.524-9.828-7.573-19.208-3.146-28.142 6.64-13.401 13.634-13.983 18.55-15.737 4.915-1.754 5.455-.282 1.986-9.501-3.469-9.22-3.347-21.467 0-29.47s15.033-13.602 18.632-14.85c3.599-1.25 1.728-3.7-2.463-13.11-4.19-9.41 2.897-24.414 7.317-29.596 2.947-3.454 7.73-5.838 14.35-7.151l1.833-1.644c2.47.106 4.676.86 6.618 2.26 2.912 2.103 1.993 2.98 4.338 5.674 1.564 1.795 3 3.117 4.308 3.966 5.662 5.024 10.38 7.843 14.151 8.458 5.659.921 17.721.7 18.89-.723.78-.95 2.063-1.201 3.85-.757l8.685 3.056c-1.31.694-1.31 1.903 0 3.629 1.965 2.588 6.871 12.26 3.262 25.937-2.407 9.119-9.083 15.714-20.03 19.785zm18.226-21.867c1.326-10.447.14-17.98-3.558-22.6-5.546-6.928-20.997-2.174-24.632 2.968-3.635 5.14-11.877 9.084-3.331 25.774 8.545 16.69 19.316 9.974 25.232 4.58 3.944-3.594 6.04-7.169 6.289-10.722zm-19.861 55.183c4.083-6.49 3.55-14.073-1.599-22.747-7.723-13.01-22.23-1.001-26.537 1.55-4.307 2.553-10.333 6.318-5.106 21.197 5.227 14.88 11.92 15.448 13.768 15.607 1.848.16 12.104-3.34 14.296-7 1.461-2.44 3.187-5.309 5.178-8.607zm-19.271 53.822c1.68-3.772 2.144-8.524 1.392-14.254-.752-5.731-2.947-9.778-6.587-12.142l-6.052-2.443c-12.234 2.663-19.683 6.777-22.348 12.342-3.996 8.349.384 14.49 2.767 19.787 1.589 3.532 3.606 6.504 6.051 8.915l6.19 2.178c5.03-.468 8.836-1.83 11.415-4.086 2.58-2.256 4.97-5.688 7.172-10.297zm-7.13-125.847c.61-6.323-.425-12.107-3.108-17.352-4.024-7.867-12.462-11.166-16.015-9.696-3.554 1.47-14.03 6.065-16.253 12.892-2.223 6.826-2.581 13.107.54 20.246 2.08 4.76 5.786 7.485 11.119 8.178 4.171.18 8.928-1.482 14.27-4.985 5.342-3.502 8.491-6.596 9.446-9.283zM99.13 148.412c.945-6.514-.534-14.192-5.527-21.26-4.994-7.068-9.387-7.72-14.973-5.546-5.585 2.173-15.602 8.196-15.954 16.678-.352 8.483-.838 15.973 3.558 21.77 4.395 5.796 12.071 6.05 17.99 2.903 5.92-3.148 13.96-8.032 14.906-14.545zm-20.009 53.517c1.027-5.878-3.117-15.483-6.138-20.477-2.014-3.329-5.196-5.692-9.546-7.09-8.726 1.365-14.213 4.375-16.46 9.029-3.37 6.98-5.039 15.182-3.142 21.214 1.897 6.032 7.01 10.819 10.409 11.795 3.4.976 11.178-.963 16.95-4.898 5.774-3.935 6.9-3.695 7.927-9.573zm54.693-69.682c-.84-4.074-5.54-8.472-14.096-13.196-12.836-7.085-23.688-4.008-24.896-2.41-1.207 1.597-1.456 2.631 1.473 6.208 2.929 3.577 9.592 8.194 15.03 10.43 5.44 2.236 11.287 2.451 16.93 2.146 3.762-.204 5.615-1.263 5.559-3.178zm-6.168-15.411c-.325-4.717-.93-7.612-1.814-8.684-1.327-1.61-5.973-3.885-9.2-2.979-3.226.907-6.93 4.061-7.422 5.961-.492 1.9 2.743.832 6.264 1.317 3.521.486 3.713 1.415 7.034 2.428 2.214.675 3.927 1.327 5.138 1.957zm9.485-27.02c.148-.637-.538-.956-2.059-.958-2.282-.003-4.5-.172-7.324-.942s-5.515-3.742-6.747-4.817c-1.232-1.076-1.222-.082-.692 3.82.53 3.904 3.581 6.45 5.144 7.105 1.562.656 4.659.673 6.154 0 .997-.449 2.838-1.851 5.524-4.208zm-18.6 50.162c-1.65-.01-3.145-.105-4.486-.286-2.01-.272-2.295-.835-5.41-2.142-3.117-1.306-5.172-2.481-6.137-3.678-.965-1.196-2.349.089-2.364 1.197-.015 1.108 1.102 4.463 1.813 6.192.711 1.73 1.747 2.69 3.559 3.458 1.812.769 4.26 1.44 5.68 1.234 1.42-.207 5.604-2.493 7.212-3.968 1.073-.984 1.117-1.653.132-2.007zm-15.42 18.211c-2.859-1.608-2.48-1-4.704-1.096-2.224-.097-6.158 3.276-7.584 4.934-1.425 1.658.953 1.212 3.894 1.023 2.94-.188 3.85.737 6.8 1.834 2.95 1.097 4.376 3.688 5.809 4.583 1.433.895 1.19-1.801.56-4.583-.63-2.782-1.917-5.087-4.776-6.695zm11.225 27.138c.384-1.333-.346-3.006-2.191-5.018-2.767-3.018-5.282-4.745-6.507-6.045-1.225-1.3-6.146-5.964-8.862-5.954-2.716.01-6.698-.42-12.952-.282-6.254.137-11.03 1.847-8.289 5.544 2.74 3.697 8.681 9.048 12.014 11.474 3.333 2.427 7.449 2.11 10.742 2.665 3.294.554 7.471.827 11.267 0 2.531-.552 4.123-1.346 4.778-2.384zm-15.8 9.43c.522-1.684-.834-1.09-3.224-1.16-2.39-.07-4.11-1.152-6.546-1.948-2.438-.797-4.467-1.925-6.424-3.386-1.956-1.461-1.832.43-1.761 1.487.07 1.056.41 2.597 2.016 5.4 1.606 2.804 2.602 2.907 5.928 3.857 3.325.95 3.556.533 5.309-.646 1.752-1.178 4.18-1.92 4.702-3.604zm-9.012 26.302c.48-3.52-2.512-6.648-3.957-7.752-1.445-1.105-2.931-2.304-5.07-2.543-2.14-.24-2.255.23-5.29 1.646-3.036 1.417-5.35 2.694-5.986 4.358-.637 1.665 1.571 1.536 3.154 2.316 1.582.78 3.79.496 6.363 1.05 2.573.555 4.486 2.303 6.02 2.76 1.534.456 4.286 1.686 4.766-1.835zm86.146-102.667c.684-.908 3.239.235 6.14-.216 2.9-.45 1.062.621 2.81 0 1.747-.62 3.416-.93 4.849.555 1.432 1.485 3.221 6.46 5.21 18.169 1.327 7.805 2.08 16.087 2.256 24.847.804.069 2.62.418 5.446 1.047 4.24.944 4.544 2.354 8.61 2.46 2.711.07 4.249.26 4.613.574-.607-1.15 1.08-7.398 5.058-18.747 5.967-17.024 10.67-25.996 11.864-26.953 1.193-.958 1.727-.421 2.77-.622 1.042-.2 1.288-.937 4.185-.775 2.897.161 3.909 1.11 5.287 1.09 1.378-.021 1.231-.253 2.923 1.106 1.691 1.36 1.13 8.404 2.299 11.475 1.169 3.071 1.402 42.879 2.734 55.213 1.332 12.334-2.692 42.524-5.033 51.561-2.341 9.037-7.612 15.479-11.812 15.373-4.2-.105-10.145-2.895-14.135-2.802-3.99.093-5.963 1.18-8.627 1.122-1.777-.039-2.329-.039-1.657 0-1.981.68-4.396 1.08-7.243 1.197-4.27.176-7.296-1.664-8.578-2.32-1.282-.654-5.208-.416-8.04-.981-2.83-.565-7.813-2.39-11.181-4.736-2.246-1.564-4.822-2.784-7.729-3.658a114.145 114.145 0 0 1-5.071-21.749c-1.463-11.093-3.858-36.424-2.28-47.777 1.58-11.353 7.857-23.867 9.99-35.687 2.135-11.82 3.66-17.858 4.343-18.766zm55.588 47.453c2.95 1.183 4.9 2.13 5.846 2.84.946.712 1.68 1.656 2.2 2.833.397-1.277.738-2.726 1.022-4.345.427-2.43.186-7.767.464-12.811.185-3.363-.31-10.116-1.486-20.258-1.882 4.61-3.375 9.145-4.482 13.605-1.107 4.46-2.295 10.506-3.564 18.136zm-44.723-4.411v-11.756c-1.19 2.705-2.03 4.877-2.524 6.518a31.78 31.78 0 0 1-1.82 4.691l4.344.547zm114.635 71.773c6.34 1.215 11.245 2.08 14.713 2.595 5.202.771 13.725 1.347 17.522 2.044 3.798.698 10.104 1.486 12.175 2.147 1.38.44 2.547.646 3.5.617.238-.874.378-1.67.421-2.388.064-1.077-1-7.783-.92-10.808.077-3.025 1.004-6.18 4.344-10.007 3.34-3.827 11.226-8.697 14.61-11.034 3.383-2.337 7.26-6.286 7.887-9.315.626-3.028-.265-5.313-2.215-6.402-1.95-1.089-4.264-.99-7.165-.083-2.902.907-8.571 3.197-9.938 3.568-1.366.37-2.885 2.008-3.138-.417-.252-2.426 3.616-6.404 6.319-12.053 2.702-5.649 6.242-12.201 6.739-16.1.496-3.9.654-8.591-2.178-9.766-2.832-1.175-5.83-1.176-8.952 2.763-2.08 2.627-4.089 7.19-6.024 13.69-.699 2.532-1.494 3.821-2.387 3.866-1.338.068.416-2.609 1.095-6.14.68-3.53 2.077-7.43 2.72-11.36.641-3.932.146-9.24-2.932-11.46-3.079-2.218-4.977-.721-6.512.492-1.535 1.214-3.154 6.923-3.813 10.174-.66 3.251-.984 6.548-1.51 9.267-.526 2.719.009 7.12-1.334 6.86-1.342-.258-.926-5.464-.408-10.507.518-5.043 2.46-14.317-4.27-15.184-6.73-.867-7.345 6.276-7.513 8.052-.112 1.185-.637 7.02-1.575 17.508a343.096 343.096 0 0 0-2.202-8.713c-1.21-4.547-2.455-9.585-7.136-9.228-4.681.356-5.302 8.4-5.248 11.078.03 1.52.48 6.464 1.7 10.969.929 3.431 2.649 6.484 2.956 8.304.709 4.21 2.646 7.095 2.732 11.079.086 3.983-.38 5.1-2.296 9.148-1.915 4.049-4.473 9.931-6.946 16.692-1.65 4.508-2.59 7.858-2.821 10.052zM252.872 82.766c-1.22-.062 6.028 10.442 5.083 10.987-.945.546-6.788-10.004-7.574-9.55-.786.454 5.185 10.93 4.306 11.437-.88.508-6.815-9.988-7.695-9.48-.88.508 5.36 10.828 4.5 11.325-.862.498-7.063-10.288-7.288-9.715-.226.573-1.818 8.318 3.539 17.504 5.357 9.186 10.65 10.201 13.198 11.486 2.548 1.285 4.94 3.15 9.552 11.65a799.72 799.72 0 0 0 8.82 15.85c4.946 8.505 15.47 26.635 16.132 27.367.661.733 1.45.762 3.194-.245 1.744-1.006 2.424-1.44 1.91-2.701-.515-1.261-11.69-21.415-15.384-27.8-3.696-6.383-8.16-13.055-9.568-15.418-1.41-2.364-6.07-10.592-5.988-13.707.083-3.116 2.923-7.563-2.98-17.591-5.904-10.028-12.537-11.338-13.757-11.4zM42.21 145.799L69.865 42.597l.725-.982.852.229-.467-.75.33-.446.863.231-.482-.747.337-.457.837.225-.442-.759.338-.457.855.229-.528-.671.347-.47.814.072-.4-.632.337-.423.742.198-.436-.721.25-.264 21.101-2.247.549 6.42a12316.35 12316.35 0 0 1-17.214 2.003c-.292.03-.598 0-.92-.09.215.414.297.654.248.718-.05.064-.316.032-.798-.097.27.44.38.69.33.75-.05.06-.358.028-.923-.096.243.375.368.609.375.7.008.09-.086.258-.28.501L49.553 147.766l-7.341-1.967z"/><path fill="#00D1D9" d="M183.479 68.928l17.47 49.394c1.468 2.477 6.437 2.58 14.907.31 8.47-2.27 12.975-4.911 13.516-7.926l-9.245-51.598 2.115-.567c-.177-.45-.453-.754-.829-.913a18.398 18.398 0 0 0-.77-.313l-.626-2.336c-.027-.125-.163-.278-.408-.458-.245-.18-.632-.2-1.16-.058l-1.758-3.841c-.075-.197-.24-.39-.496-.58a.89.89 0 0 0-.82-.154l-16.738 4.485-15.465 4.144c-.677.095-1.12.323-1.331.686-.211.363-.292.637-.242.822l.494 4.18c-.553.137-.905.354-1.055.65-.15.298-.17.585-.058.862l.557 2.077c-.223.218-.464.456-.722.713-.258.257-.298.646-.12 1.167l2.784-.746zm-55.433-36.466a.51.51 0 0 1 .044-.15c.68-1.458 8.775-.137 17.6 3.979 8.827 4.115 15.042 9.468 14.362 10.926a.51.51 0 0 1-.087.129l.022.01-6.091 13.063-.004-.002c-.019.048-.04.094-.061.14-1.61 3.455-10.071 2.918-18.897-1.198-8.826-4.115-14.676-10.252-13.065-13.705.021-.047.044-.093.068-.138l-.004-.001 6.092-13.063.021.01zm147.287 129.512v17.276c0 1.458-.8 3.673-2.4 6.645.277 43.372.366 65.418.267 66.14-.148 1.08-1.59.98-3.2.98s-1.968-.207-2.133-.98c-.11-.517-.021-22.563.266-66.14-2.31-3.02-3.466-5.236-3.466-6.645v-17.276c.07-3.735 1.848-5.603 5.333-5.603 3.485 0 5.263 1.868 5.333 5.603zm-5.466 6.379c1.9 0 2.533-1.663 2.533-3.057 0-.072-5.067 0-5.067 0 0 1.395.632 3.057 2.534 3.057zm0-8.139c-1.923 0-2.534 1.662-2.534 3.057 0 0 5.067.072 5.067 0 0-1.395-.61-3.057-2.533-3.057zm0 19.302c1.9 0 2.533-1.662 2.533-3.057 0-.072-5.067 0-5.067 0 0 1.395.632 3.057 2.534 3.057zm0-8.139c-1.923 0-2.534 1.662-2.534 3.057 0 0 5.067.072 5.067 0 0-1.395-.61-3.057-2.533-3.057z"/></g></svg>