<svg xmlns="http://www.w3.org/2000/svg" width="523" height="538"><g fill="none"><path fill="#FFF" d="M292.818 128.541l-51.582-32.424c-28.839-3.37-57.456-13.97-85.85-31.801-42.593-26.746-67.954-36.9-67.954-53.746 0-16.845 28.409-6.738 67.953-6.738 39.544 0 73.567 17.364 114.43 45.153 27.242 18.526 43.44 45.044 48.593 79.556 11.211 4.889 18.646 9.471 22.304 13.748 13.649 15.959 24.283 9.652 33.33 6.015 16.583-6.666 13.798-11.377 36.8-30.204 15.336-12.551 31.675-11.076 49.016 4.424 9.446 10.528 9.446 24 0 40.417-14.17 24.626-33.171 7.817-39.842 28.304-4.448 13.657-7.506 21.771-9.173 24.34l1.288 22.514c13.661-3.693 27.027 1.246 40.1 14.816 14.474 15.027 38.971 29.322 54.306 65.127 6.162 14.389 7.12 46.03 10.927 60.922 13.28 51.953-.95 98.342-15.31 115.861-14.362 17.52-18.084-29.656-30.102-60.46-8.011-20.536-14.619-44.785-19.822-72.749l-40.099-101.109c-6.286 38.357-22.756 74.079-49.41 107.166-26.654 33.087-64.603 55.318-113.849 66.692 0 15.17-2.545 30.629-7.636 46.379-7.635 23.625-14.895 35.85-22.322 44.622-7.427 8.772-21.28 15.137-35.534 11.765-14.252-3.372-13.574-9.14-17.273-16.695-2.466-5.036-2.466-15.895 0-32.576l-10.722-7.116s0-21.274 17.816-32.145c4.884-2.98 11.634-7.725 20.25-14.234-19.173-6.796-36.333-11.467-51.48-14.012-15.149-2.546-31.246-5.038-48.294-7.479a8349.6 8349.6 0 0 1-6.245-45.2c-1.898-14.049-1.898-26.835 0-38.36-9.63 1.17-22.32 9.729-38.071 25.679-15.751 15.95-30.009 15.95-42.772 0-6.386-10.526-7.947-22.843-4.683-36.95 4.897-21.163 3.586-21.718 26.754-36.202 15.446-9.656 37.118-12.77 65.017-9.34 19.596-47.346 40.165-80.885 61.708-100.616 21.543-19.73 67.354-34.179 137.433-43.344zm152.443 30.546c3.755 0 6.8-3.022 6.8-6.75 0-3.729-3.045-6.751-6.8-6.751-3.756 0-6.8 3.022-6.8 6.75 0 3.729 3.044 6.751 6.8 6.751z"/><path fill="#00D1D9" d="M211.706 215.46c.622 2.209 2.339 2.854 5.15 1.936 4.216-1.376 7.09-1.474 14.452-4.31 7.362-2.835 19.051-2.108 31.54 4.843 12.488 6.951 13.332 16.623 16.52 23.16 3.189 6.538 5.94 3.05 11.235 0 5.296-3.05 8.241-5.28 19.851-5.28s14.854 1.149 25.713 8.282c7.239 4.755 10.932 12.43 11.078 23.024l3.417 1.41-8.649 13.148c-.516-.537-2.465 1.052-5.846 4.769-5.072 5.574-5.571 11.614-10.37 22.816-3.198 7.469-3.9 14.705-2.107 21.71l-3.805 11.844-6.126 2.47c-12.872 8.374-25.159 9.72-36.86 4.038-17.553-8.524-18.315-17.502-20.612-23.812-2.298-6.31-.369-7.003-12.445-2.55-12.075 4.453-28.116 4.296-38.598 0-10.483-4.297-17.816-19.297-19.452-23.918-1.636-4.62-4.846-2.218-17.17 3.162-12.325 5.379-31.977-3.72-38.764-9.393-4.524-3.783-7.647-9.923-9.367-18.422l-2.153-2.352c.139-3.17 1.126-6.002 2.961-8.495 2.753-3.739 3.903-2.558 7.43-5.57 2.352-2.006 4.084-3.85 5.196-5.529 6.58-7.268 10.272-13.324 11.077-18.166 1.207-7.263.917-22.748-.947-24.248-1.243-1-1.573-2.648-.991-4.942l4.003-11.15c.908 1.682 2.492 1.682 4.752 0 3.39-2.522 16.058-8.82 33.973-4.186 11.943 3.089 20.581 11.66 25.914 25.711zm-28.641-23.396c-13.683-1.702-23.55-.18-29.6 4.567-9.076 7.12-2.848 26.954 3.886 31.62s11.898 15.246 33.76 4.277c21.86-10.97 13.062-24.797 5.998-32.391-4.709-5.063-9.39-7.754-14.044-8.073zm72.278 25.495c-8.502-5.24-18.434-4.557-29.794 2.053-17.04 9.913-1.312 28.537 2.031 34.066 3.343 5.528 8.275 13.264 27.763 6.554 19.489-6.71 20.233-15.303 20.442-17.674.21-2.372-4.375-15.538-9.169-18.351a3746.418 3746.418 0 0 1-11.273-6.648zm70.495 24.739c-4.941-2.157-11.164-2.752-18.67-1.787-7.507.965-12.808 3.783-15.903 8.455l-3.2 7.77c3.487 15.703 8.876 25.266 16.166 28.686 10.934 5.131 18.978-.493 25.916-3.552 4.626-2.039 8.519-4.628 11.677-7.767l2.852-7.945c-.613-6.458-2.397-11.343-5.351-14.655-2.955-3.31-7.45-6.38-13.487-9.205zm-164.833 9.153c-8.281-.784-15.856.545-22.726 3.988-10.305 5.166-14.626 15.998-12.7 20.56 1.925 4.56 7.943 18.01 16.885 20.863 8.941 2.853 17.167 3.314 26.518-.692 6.233-2.671 9.804-7.43 10.711-14.274.235-5.355-1.941-11.461-6.528-18.32-4.588-6.857-8.64-10.899-12.16-12.125zm68.14 24.733c-8.531-1.213-18.588.685-27.845 7.095-9.258 6.41-10.112 12.05-7.265 19.22 2.847 7.17 10.735 20.028 21.845 20.48 11.11.453 20.922 1.076 28.514-4.566 7.592-5.643 7.925-15.496 3.802-23.095-4.122-7.598-10.52-17.92-19.05-19.134zm70.096 25.685c-7.698-1.317-20.28 4.002-26.82 7.88-4.36 2.585-7.456 6.67-9.287 12.254 1.789 11.202 5.73 18.245 11.827 21.13 9.143 4.326 19.884 6.468 27.785 4.032 7.9-2.435 14.17-8.997 15.45-13.36 1.278-4.365-1.263-14.35-6.417-21.76-5.154-7.411-4.839-8.858-12.538-10.176zm-91.268-70.208c-5.336 1.08-11.097 7.11-17.284 18.095-9.28 16.477-5.25 30.408-3.157 31.958 2.092 1.55 3.447 1.87 8.132-1.89s10.733-12.314 13.661-19.296c2.928-6.98 3.21-14.488 2.81-21.731-.267-4.829-1.654-7.208-4.162-7.136zm-20.186 7.917c-6.178.417-9.969 1.193-11.374 2.329-2.107 1.703-5.087 7.667-3.9 11.81 1.186 4.141 5.318 8.896 7.807 9.528 2.489.632 1.089-3.522 1.725-8.042.636-4.52 1.853-4.766 3.18-9.029.884-2.842 1.738-5.04 2.562-6.596zm-35.389-12.175c-.834-.19-1.253.69-1.255 2.643-.004 2.929-.226 5.776-1.234 9.401-1.008 3.626-4.9 7.08-6.31 8.662-1.408 1.581-.107 1.569 5.005.888 5.113-.681 8.446-4.597 9.305-6.603.859-2.006.882-5.98 0-7.9-.588-1.28-2.425-3.643-5.51-7.09zm65.7 23.877c-.012 2.118-.137 4.037-.374 5.758-.356 2.58-1.094 2.946-2.805 6.946-1.711 4-3.25 6.639-4.817 7.877-1.567 1.24.115 3.014 1.567 3.034 1.451.02 5.846-1.414 8.11-2.327 2.266-.913 3.523-2.242 4.53-4.568 1.007-2.326 1.886-5.468 1.616-7.292-.27-1.824-3.266-7.193-5.198-9.258-1.288-1.377-2.164-1.433-2.628-.17zm23.853 19.795c-2.106 3.669-1.31 3.183-1.436 6.037-.126 2.855 4.291 7.906 6.463 9.736 2.172 1.83 1.588-1.223 1.34-4.998-.246-3.776.965-4.942 2.402-8.73 1.437-3.787 4.83-5.617 6.003-7.457 1.173-1.84-2.36-1.527-6.003-.718-3.643.808-6.663 2.46-8.769 6.13zm35.546-14.41c-1.747-.493-3.938.444-6.573 2.812-3.953 3.552-6.215 6.78-7.918 8.353-1.703 1.572-7.811 7.889-7.799 11.376.013 3.486-.55 8.599-.37 16.626.181 8.028 2.42 14.158 7.263 10.64 4.842-3.518 11.85-11.143 15.029-15.421 3.178-4.279 2.763-9.562 3.49-13.79.725-4.228 1.083-9.59 0-14.463-.723-3.25-1.764-5.293-3.122-6.133zm12.35 20.282c-2.205-.67-1.427 1.07-1.519 4.138-.091 3.067-1.508 5.276-2.551 8.404-1.044 3.128-2.522 5.734-4.435 8.246-1.914 2.511.564 2.351 1.947 2.26 1.384-.09 3.402-.525 7.074-2.587 3.672-2.063 3.807-3.341 5.05-7.61 1.245-4.269.699-4.565-.845-6.815-1.543-2.25-2.516-5.365-4.72-6.036zm34.451 11.568c-4.611-.616-8.708 3.224-10.155 5.08-1.446 1.854-3.016 3.763-3.33 6.509-.313 2.746.302 2.894 2.157 6.79 1.855 3.898 3.528 6.867 5.708 7.685 2.18.817 2.011-2.018 3.032-4.05 1.022-2.031.65-4.866 1.377-8.168.726-3.303 3.016-5.758 3.614-7.728.597-1.97 2.208-5.501-2.403-6.118z"/><g fill="#00D1D9" transform="translate(278 210)"><ellipse cx="51.647" cy="68.04" rx="7.62" ry="7.56"/><ellipse cx="82.127" cy="65.52" rx="7.62" ry="7.56"/><ellipse cx="75.777" cy="52.5" rx="8.89" ry="8.82"/><ellipse cx="100.33" cy="38.22" rx="8.89" ry="8.82"/><path d="M92.68 52.436c3.905 0 6.972.451 6.972-3.422 0-3.874-3.165-7.014-7.07-7.014-3.904 0-7.069 3.14-7.069 7.014 0 3.873 3.263 3.422 7.167 3.422zM45.74 36.022c0-4.98-.584-9.142 4.436-9.142s9.09 4.037 9.09 9.018c0 4.98-4.07 9.017-9.09 9.017s-4.435-3.913-4.435-8.893zM25.4 62.538c0-4.98.507-6.258 5.527-6.258 5.02 0 10.85 2.771 10.85 7.751s-4.069 9.018-9.088 9.018c-5.02 0-7.289-5.53-7.289-10.51z"/><ellipse cx="51.647" cy="68.04" rx="7.62" ry="7.56"/><ellipse cx="39.793" cy="90.72" rx="6.773" ry="6.72"/><ellipse cx="41.487" cy="55.44" rx="6.773" ry="6.72"/><ellipse cx="71.12" cy="84.84" rx="7.62" ry="7.56"/><ellipse cx="91.017" cy="102.9" rx="11.43" ry="11.34"/><ellipse cx="28.363" cy="34.86" rx="11.43" ry="11.34"/><path d="M76.807 30.83c6.414 0 8.973-4.604 8.973-10.968 0-6.363-3.024-10.622-9.438-10.622-6.414 0-11.149 3.705-11.149 10.068 0 6.364 5.2 11.523 11.614 11.523zm34.966 53.818c6.414 0-.357-10.648-.357-17.012 0-6.364 1.82-11.356-4.594-11.356-6.414 0-11.149 3.705-11.149 10.068 0 6.364 9.685 18.3 16.1 18.3zm-93.754 21.498c-5.555-3.182-7.927-18.323-4.72-23.834 3.207-5.51 9.174-6.37 14.729-3.189 5.555 3.182 1.462 6.602-1.745 12.114-3.207 5.51-2.71 18.091-8.264 14.91z"/></g><path fill="#00D1D9" d="M125.333 319.632V334c0 1.213-.65 3.055-1.95 5.526.225 36.072.297 54.408.217 55.007-.12.9-1.292.817-2.6.817-1.309 0-1.6-.173-1.733-.817-.09-.429-.017-18.764.216-55.007-1.877-2.512-2.816-4.354-2.816-5.526v-14.368c.057-3.107 1.501-4.66 4.333-4.66 2.831 0 4.276 1.553 4.333 4.66zm-4.441 5.305c1.544 0 2.058-1.383 2.058-2.542 0-.06-4.117 0-4.117 0 0 1.16.514 2.542 2.059 2.542zm0-6.769c-1.563 0-2.059 1.382-2.059 2.542 0 0 4.117.06 4.117 0 0-1.16-.496-2.542-2.058-2.542zm0 16.053c1.544 0 2.058-1.382 2.058-2.542 0-.06-4.117 0-4.117 0 0 1.16.514 2.542 2.059 2.542zm0-6.769c-1.563 0-2.059 1.383-2.059 2.542 0 0 4.117.06 4.117 0 0-1.16-.496-2.542-2.058-2.542zM379.71 163.455l-68.763 5.454c-3.649 1.035-5.473 7.4-5.473 19.091 0 11.692 1.824 18.406 5.473 20.142l68.763 5.9v2.92c.632-.073 1.113-.323 1.443-.752.33-.429.55-.724.66-.885h3.184c.169.01.41-.113.722-.367.313-.253.469-.745.469-1.474l5.483-.939c.276-.027.578-.173.906-.438.328-.265.486-.6.476-1.003v-44.452c.11-.904-.03-1.555-.42-1.952-.389-.396-.71-.595-.962-.595l-5.483-.805c.014-.76-.142-1.288-.469-1.584-.326-.295-.685-.42-1.075-.371h-2.83a157.94 157.94 0 0 0-.661-1.176c-.24-.421-.72-.607-1.443-.557v3.843zM243.7 196.332l57.313-57.312.853-.366.482.482-.03-.676.389-.166.487.487-.04-.68.398-.17.473.473-.009-.672.398-.17.483.483-.1-.648.41-.175.514.364-.029-.572.385-.148.42.419-.019-.645.266-.077 14.901 6.714-2.053 4.446a9606.694 9606.694 0 0 1-12.221-5.365 1.901 1.901 0 0 1-.578-.416c-.014.357-.05.546-.107.57-.057.023-.222-.102-.494-.375.014.395-.007.603-.063.623-.056.02-.249-.12-.579-.422.02.343.016.545-.014.608-.029.063-.154.137-.375.222l-57.313 57.313-4.148-4.149zm13.591 179.081a.5.5 0 0 1-.024-.153c0-1.609 8.066-3.833 18.016-3.833 9.95 0 18.017 2.224 18.017 3.833a.5.5 0 0 1-.025.153h.025v14.414h-.004c.003.05.004.102.004.153 0 3.81-8.066 6.9-18.017 6.9-9.95 0-18.016-3.09-18.016-6.9 0-.051.001-.102.004-.153h-.004v-14.414h.024zm-78.011 41.324c5.583-3.114 9.854-5.58 12.812-7.397 4.436-2.725 11.267-7.713 14.592-9.601 3.325-1.888 8.61-5.304 10.602-6.121 1.327-.545 2.343-1.131 3.047-1.76-.376-.814-.776-1.508-1.2-2.08-.638-.857-5.712-5.267-7.578-7.611-1.866-2.344-3.172-5.328-3.073-10.357.098-5.028 2.98-13.741 4.058-17.667 1.079-3.927 1.506-9.39.054-12.086-1.452-2.696-3.583-3.862-5.755-3.447-2.172.415-3.864 1.964-5.488 4.498-1.623 2.534-4.466 7.88-5.266 9.031-.801 1.151-.91 3.36-2.646 1.68-1.736-1.678-1.333-7.158-2.879-13.163s-3.031-13.228-5.136-16.502c-2.105-3.274-4.972-6.933-7.868-6.021-2.896.911-5.17 2.818-5.03 7.793.092 3.317 1.473 8.056 4.142 14.218 1.082 2.366 1.3 3.85.651 4.452-.972.904-1.345-2.243-3.077-5.354-1.732-3.11-3.154-6.957-5.169-10.348-2.015-3.391-5.77-7.102-9.517-6.826-3.747.276-4.234 2.62-4.626 4.517-.392 1.898 2.013 7.26 3.583 10.145 1.57 2.885 3.421 5.593 4.753 7.99 1.332 2.397 4.538 5.395 3.355 6.053-1.183.659-4.181-3.556-6.998-7.71-2.817-4.155-7.246-12.427-12.903-8.8-5.657 3.625-1.577 9.435-.574 10.89.669.97 3.985 5.73 9.95 14.282a339.733 339.733 0 0 0-7.218-5.207c-3.812-2.68-7.962-5.708-11.286-2.458s1.325 9.746 3.07 11.743c.991 1.133 4.479 4.598 8.271 7.238 2.89 2.012 6.137 3.232 7.528 4.418 3.218 2.742 6.523 3.698 9.124 6.664 2.6 2.967 2.958 4.111 4.082 8.401 1.124 4.29 2.928 10.38 5.355 17.083 1.618 4.469 3.037 7.609 4.258 9.42z"/></g></svg>