<svg width="600" height="600" viewBox="0 0 600 600" xmlns="http://www.w3.org/2000/svg"><g fill="none" fill-rule="evenodd"><path d="M300 15c46.944 0 85 38.056 85 85s-38.056 85-85 85-85-38.056-85-85 38.056-85 85-85Zm0 55c-16.569 0-30 13.431-30 30 0 16.569 13.431 30 30 30 16.569 0 30-13.431 30-30 0-16.569-13.431-30-30-30Z" fill="#FFF"/><path d="M119.388 130h357.224c29.576 0 54.74 21.553 59.287 50.778l51.333 330c5.093 32.743-17.321 63.416-50.064 68.509a60 60 0 0 1-9.223.713H68.055c-33.137 0-60-26.863-60-60a60 60 0 0 1 .713-9.222l51.333-330C64.647 151.553 89.811 130 119.388 130Z" fill="#FFF"/><path d="m175.986 248.135.179-.489c-2.713-4.572-.704-24.382 7.268-46.284 7.971-21.902 19.166-38.369 24.183-40.128l.178-.49 112.763 41.042c9.341 3.4 9.794 25.72 1.01 49.852-8.783 24.133-23.476 40.94-32.818 37.54l-112.763-41.043ZM72 537.5c0-10.78 5.855-16.281 17.564-16.5h54.163c4.571 0 11.515 2.475 20.832 7.425 135.977-.855 205.095-1.13 207.355-.825 3.391.458 3.078 4.918 3.078 9.9 0 4.983-.652 6.09-3.078 6.6-1.617.34-70.735.065-207.355-.825-9.47 7.15-16.414 10.725-20.832 10.725H89.564C77.854 553.782 72 548.283 72 537.5Zm63.104 8.5c4.515 0 9.896-1.996 9.896-8s-5.382-8-9.896-8c-.234 0 0 16 0 16ZM119 538c0 6.073 5.381 8 9.896 8 0 0 .234-16 0-16-4.515 0-9.896 1.927-9.896 8Zm-18.896 8c4.515 0 9.896-1.996 9.896-8s-5.382-8-9.896-8c-.234 0 0 16 0 16ZM84 538c0 6.073 5.381 8 9.896 8 0 0 .234-16 0-16-4.515 0-9.896 1.927-9.896 8Z" fill="#00D1D9" fill-rule="nonzero"/><path d="M420.268 204.05c3.553 4.713 12.427 22.325 5.899 47.232-4.352 16.604-16.427 28.614-36.224 36.027-3.111.865-4.02 3.252-2.728 7.16 1.94 5.863 2.078 9.859 6.072 20.094 3.995 10.235 2.97 26.486-6.822 43.849-9.793 17.362-23.419 18.536-32.63 22.969-9.21 4.432-4.297 8.257 0 15.62 4.298 7.362 7.44 11.457 7.44 27.598s-1.619 20.652-11.668 35.749c-6.7 10.064-17.512 15.198-32.438 15.402l-1.986 4.75-18.524-12.024c.757-.718-1.482-3.428-6.718-8.128-7.854-7.051-16.363-7.746-32.145-14.417-10.522-4.447-20.718-5.423-30.588-2.93l-16.684-5.29-3.48-8.518c-11.799-17.895-13.695-34.977-5.69-51.246 12.01-24.403 24.658-25.462 33.548-28.657 8.89-3.194 9.867-.512 3.593-17.301-6.274-16.789-6.053-39.09 0-53.664 6.053-14.574 27.187-24.769 33.696-27.043 6.509-2.275 3.125-6.738-4.454-23.873-7.578-17.135 5.24-44.457 13.233-53.893 5.33-6.29 13.98-10.631 25.954-13.023l3.314-2.993c4.466.193 8.455 1.565 11.967 4.117 5.268 3.827 3.605 5.426 7.847 10.33 2.828 3.27 5.424 5.678 7.79 7.223 10.24 9.149 18.772 14.282 25.594 15.401 10.233 1.678 32.048 1.275 34.162-1.316 1.41-1.728 3.73-2.188 6.963-1.379l15.707 5.566c-2.369 1.263-2.369 3.465 0 6.607ZM257.031 372.41c-3.667-6.06-9.462-10.364-17.384-12.91-15.891 2.487-25.883 7.967-29.975 16.441-6.138 12.711-9.177 27.644-5.722 38.627 3.455 10.983 12.764 19.7 18.955 21.477 6.191 1.778 20.357-1.754 30.87-8.919 10.513-7.165 12.564-6.727 14.434-17.43 1.87-10.702-5.677-28.193-11.178-37.285Zm36.457-98.3c-9.057-12.876-17.025-14.064-27.156-10.104-10.131 3.96-28.298 14.932-28.937 30.385-.639 15.454-1.52 29.1 6.453 39.661 7.972 10.56 21.894 11.023 32.63 5.289 10.736-5.734 25.32-14.632 27.034-26.499 1.715-11.867-.968-25.855-10.024-38.732Zm-14.734 156.575c-2.612-1.989-5.3-4.147-9.167-4.578-3.867-.43-4.076.415-9.563 2.965-5.488 2.55-9.67 4.85-10.821 7.848-1.15 2.997 2.841 2.765 5.702 4.17 2.861 1.403 6.853.893 11.504 1.892 4.65.998 8.109 4.146 10.882 4.968 2.774.822 7.748 3.037 8.616-3.303.868-6.34-4.54-11.972-7.153-13.962Zm49.15-61.176c-4.95-5.519-9.45-8.677-11.64-11.054-2.191-2.378-10.994-10.907-15.852-10.89-4.86.018-11.983-.767-23.17-.515-11.187.252-19.73 3.378-14.827 10.139 4.902 6.76 15.528 16.546 21.49 20.983 5.962 4.437 13.325 3.858 19.216 4.872 5.892 1.013 13.365 1.512 20.155 0 4.528-1.009 7.376-2.461 8.546-4.358.688-2.44-.619-5.498-3.919-9.177Zm-25.601 27.496c.924-2.996-1.474-1.94-5.7-2.064-4.225-.124-7.266-2.05-11.575-3.466-4.31-1.418-7.898-3.426-11.358-6.026-3.459-2.6-3.239.766-3.113 2.646.125 1.88.723 4.621 3.564 9.61 2.84 4.99 4.602 5.173 10.481 6.863 5.88 1.69 6.288.948 9.387-1.15 3.098-2.096 7.39-3.418 8.314-6.413Zm30.307-211.198c-7.231-14.35-22.396-20.367-28.783-17.686-6.386 2.681-25.215 11.062-29.21 23.513-3.994 12.451-4.639 23.906.97 36.926 3.739 8.68 10.4 13.653 19.984 14.916 7.497.327 16.046-2.704 25.647-9.091 9.6-6.388 15.26-12.032 16.976-16.932 1.099-11.531-.763-22.08-5.584-31.646ZM318.617 350.18c2.55 1.637 2.117-3.292.996-8.375-1.12-5.084-3.41-9.297-8.496-12.236-5.085-2.939-4.412-1.828-8.368-2.004-3.956-.176-10.956 5.988-13.493 9.018-2.536 3.031 1.695 2.215 6.927 1.87 5.233-.344 6.85 1.347 12.1 3.352 5.249 2.005 7.784 6.739 10.334 8.375Zm36.75 70.477c-1.362-10.474-5.343-17.872-11.941-22.192L332.45 394c-22.182 4.867-35.688 12.386-40.52 22.559-7.247 15.26.697 26.483 5.017 36.166 2.88 6.456 6.538 11.887 10.972 16.295L319.14 473c9.123-.855 16.023-3.345 20.7-7.468 4.677-4.123 9.011-10.397 13.003-18.82 3.046-6.895 3.887-15.58 2.524-26.055Zm11.13-138.12c-1.54-7.39-10.149-15.369-25.827-23.936-23.517-12.851-43.401-7.27-45.613-4.373-2.212 2.898-2.668 4.774 2.698 11.262 5.366 6.487 17.575 14.863 27.54 18.919 9.964 4.055 20.679 4.446 31.018 3.891 6.892-.37 10.287-2.29 10.185-5.763Zm-27.034 18.15c1.965-1.796 2.046-3.017.242-3.665-3.022-.017-5.761-.19-8.217-.522-3.684-.497-4.205-1.525-9.914-3.91l-.514-.216c-5.421-2.299-9.015-4.38-10.73-6.498-1.768-2.184-4.302.161-4.33 2.184-.027 2.023 2.018 8.148 3.321 11.306 1.303 3.157 3.201 4.91 6.52 6.313 3.32 1.403 7.805 2.63 10.408 2.252 2.603-.377 10.267-4.552 13.214-7.245ZM355 254c-.58-8.346-1.66-13.468-3.239-15.365-2.368-2.847-10.662-6.873-16.422-5.27-5.76 1.603-12.372 7.185-13.25 10.547-.879 3.362 4.897 1.47 11.182 2.33 6.286.86 6.628 2.504 12.557 4.296 3.952 1.194 7.01 2.348 9.172 3.462Zm29.675 53.24c-14.03-23.49-40.388-1.807-48.213 2.8-7.824 4.609-18.772 11.407-9.276 38.272 9.497 26.864 21.658 27.89 25.014 28.178 3.357.289 21.99-6.03 25.972-12.639 2.654-4.405 5.79-9.585 9.407-15.539 7.418-11.72 6.45-25.41-2.904-41.071Zm-11.71-101.594c.268-1.131-.97-1.698-3.715-1.702-4.117-.005-8.118-.305-13.214-1.672-5.095-1.366-9.951-6.643-12.174-8.552-2.222-1.91-2.205-.146-1.248 6.783.957 6.93 6.462 11.448 9.28 12.612 2.82 1.164 8.407 1.195 11.104 0 1.798-.797 5.12-3.286 9.966-7.47Zm43.121 1.174c-10.072-12.628-38.13-3.963-44.73 5.407-6.602 9.37-21.569 16.555-6.05 46.972 15.517 30.418 35.077 18.176 45.82 8.348 7.163-6.552 10.97-13.066 11.42-19.542 2.409-19.038.255-32.766-6.46-41.185Z" fill="#00D1D9" fill-rule="nonzero"/><path d="M548.012 386.295c2.332-2.489-33.364-5.883-32.836-8.876.528-2.993 33.787 3.48 34.226.992.44-2.489-32.892-8.556-32.402-11.339.491-2.783 33.803 3.394 34.294.608.491-2.785-32.99-7.998-32.51-10.724.48-2.726 34.894 3.406 34.067 1.899-.828-1.508-14.646-18.79-44.093-23.852-29.447-5.06-41.175 4.395-48.535 7.519-7.36 3.124-15.691 4.874-42.314-.543-17.748-3.61-34.43-6.823-50.047-9.635-27.238-4.715-85.269-14.807-88.04-14.713-2.77.094-4.255 1.725-5.228 7.244-.973 5.52-1.264 7.748 2.38 8.913 3.643 1.165 67.207 13.503 87.621 17.08 20.415 3.576 42.834 6.032 50.465 7.268 7.632 1.237 33.76 6.062 40.325 11.826 6.564 5.763 11.027 19.789 43.273 25.196 32.246 5.408 47.022-6.375 49.354-8.863ZM146.345 193.215c-.822-1.608-5.613-7.082-15.7-8.86-10.087-1.78-15.19 2.688-16.814 3.575-1.624.888-20.236 15.709-25.668 47.316-5.432 31.607 4.765 44.204 8.137 52.107 3.371 7.903 5.263 16.848-.554 45.423-3.878 19.05-7.327 36.957-10.346 53.72-5.06 29.235-15.892 91.523-15.789 94.498.104 2.974 1.862 4.569 7.81 5.617 5.947 1.05 8.349 1.364 9.601-2.547 1.253-3.911 14.501-72.137 18.34-94.05 3.838-21.912 6.468-45.976 7.795-54.168 1.327-8.191 6.507-36.237 12.713-43.28 6.205-7.042 21.314-11.823 27.117-46.434 5.803-34.612-5.82-51.308-6.642-52.917Z" fill="#00D1D9" fill-rule="nonzero"/><path d="M411.698 368.703c-7.367 12.334-12.907 21.93-16.622 28.79-5.572 10.289-13.262 27.672-17.611 35.082-4.35 7.41-10.797 19.996-13.754 23.823-1.972 2.552-3.29 4.834-3.954 6.848 1.647 1.164 3.205 2.063 4.673 2.698 2.203.953 17.032 3.833 23.297 6.299 6.265 2.465 12.157 6.804 17.615 16.7 5.459 9.897 9.64 30.09 11.951 38.942 2.312 8.853 7.618 19.966 13.473 23.58 5.855 3.615 11.31 3.489 15.07.241 3.76-3.248 5.314-8.163 5.627-14.92.313-6.755-.162-20.353.103-23.492.265-3.14-2.003-7.56 3.261-6.244 5.264 1.318 10.636 12.433 20.39 22.382 9.754 9.95 20.76 22.338 28.534 26.343 7.774 4.005 17.464 7.904 22.075 2.877 4.612-5.028 6.896-11.294 1.035-20.82-3.907-6.35-11.918-14.02-24.035-23.013-4.764-3.388-6.853-6.032-6.268-7.932.877-2.85 5.138 2.854 12.003 6.96 6.865 4.108 13.953 9.998 21.684 14.332 7.732 4.334 19.208 7.337 26.19 2.589 6.981-4.748 5.295-9.856 3.926-13.989-1.369-4.133-12.072-11.863-18.369-15.715-6.296-3.852-12.94-7.04-18.225-10.208-5.285-3.168-14.892-5.4-13.33-8.01 1.563-2.61 12.132 2.221 22.281 7.141 10.15 4.92 28.061 16.04 34.996 2.627 6.935-13.413-7.532-20.134-11.118-21.837-2.39-1.136-14.192-6.674-35.406-16.614 6.311.73 12.942 1.405 19.894 2.024 10.427.93 21.907 2.16 24.725-7.899 2.817-10.059-13.527-17.477-19.168-19.402-3.201-1.092-13.88-3.915-24.227-4.792-7.882-.669-15.573.605-19.612-.139-9.342-1.72-16.848.134-25.242-2.717-8.394-2.851-10.374-4.676-17.38-11.761-7.007-7.085-17.36-16.91-29.613-27.227-8.169-6.878-14.458-11.394-18.869-13.547ZM131.58 373.396l46.904 132.058c3.959 6.615 17.457 6.835 40.493.663 23.037-6.173 35.307-13.298 36.81-21.376L231.254 346.69l5.753-1.542c-.475-1.201-1.222-2.013-2.24-2.434a49.975 49.975 0 0 0-2.091-.83l-1.674-6.248c-.071-.336-.438-.743-1.102-1.223-.664-.48-1.715-.527-3.151-.142l-4.733-10.264c-.2-.528-.647-1.043-1.34-1.547-.695-.503-1.437-.638-2.227-.403l-45.522 12.198-42.062 11.27c-1.84.261-3.049.879-3.626 1.852-.576.974-.799 1.708-.666 2.204l1.296 11.185c-1.505.374-2.463.96-2.874 1.756-.41.797-.466 1.565-.166 2.306l1.488 5.554c-.608.587-1.264 1.227-1.969 1.918-.705.692-.818 1.734-.339 3.126l7.571-2.029ZM410.682 157.335l121.992 102.363.872 1.595-.84 1.001 1.303-.154.397.725-.85 1.013 1.308-.175.406.742-.824.982 1.298-.114.407.743-.843 1.004 1.235-.286.418.764-.605 1.048 1.102-.14.361.721-.731.872 1.246-.13.199.503-10.13 29.768-9.002-3.32c5.215-15.85 7.893-23.98 8.033-24.391.14-.411.372-.804.695-1.178-.693.026-1.067-.015-1.123-.122-.056-.107.154-.444.63-1.01-.763.084-1.169.074-1.22-.031-.05-.105.186-.498.706-1.179-.658.089-1.051.11-1.178.062s-.295-.279-.502-.693L403.449 165.954l7.233-8.62Z" fill="#00D1D9" fill-rule="nonzero"/></g></svg>