<svg width="459" height="396" xmlns="http://www.w3.org/2000/svg"><g fill="none" fill-rule="evenodd"><path d="M229.698 303.336H98.195c-45.154 0-63.374 6.336-63.374 17.424 0 7.392 13.467 13.728 40.401 19.008 4.753 7.92 12.411 13.464 22.973 16.632 10.563 3.168 21.918 3.168 34.064 0 1.585 6.336 6.602 10.824 15.052 13.464 8.45 2.64 15.844 1.584 22.181-3.168 2.113 4.224 7.658 7.92 16.636 11.088 8.978 3.168 16.108 2.376 21.389-2.376 4.225 6.336 11.619 9.504 22.181 9.504 10.563 0 17.428-3.168 20.597-9.504 8.45 5.28 16.372 6.864 23.765 4.752 7.394-2.112 12.147-6.6 14.26-13.464 6.337 4.752 13.73 5.808 22.18 3.168 8.45-2.64 13.468-7.128 15.052-13.464 13.203 4.752 25.614 4.752 37.233 0 11.619-4.752 18.748-10.296 21.389-16.632 14.787-.528 26.142-4.488 34.064-11.88 7.922-7.392 7.922-12.936 0-16.632-21.653-5.28-44.362-7.92-68.128-7.92H229.698z" fill="#FFF"/><path d="M230.362 303.22c-32.696 6.862-51.945 6.862-57.746 0-8.702-10.291-3.955-21.375-22.15-24.542-18.194-3.167-40.343-3.958-47.462-14.25-7.12-10.293-4.747-12.668-10.284-22.168-5.537-9.5-30.06-20.584-30.06-38.002 0-17.417 5.538-19 7.91-30.084 2.374-11.084-12.656-23.751-7.91-40.377 4.747-16.625 12.657-14.25 21.359-28.501 8.701-14.25 3.955-30.876 12.656-41.96 8.702-11.084 22.15-7.917 32.433-16.626 10.284-8.708 11.075-24.542 26.105-29.293 15.03-4.75 27.686 2.375 40.343-2.375C208.213 10.292 214.541 0 229.571 0c15.03 0 20.567 12.667 35.597 15.042 15.03 2.375 26.896-3.958 39.552 2.375 12.657 6.334 16.612 23.751 26.105 29.293 9.492 5.542 22.94 4.75 32.433 16.626 9.492 11.875 3.955 24.543 12.657 38.793 8.701 14.25 22.149 21.376 22.149 34.043 0 12.667-7.91 26.126-7.91 38.002 0 11.875 8.7 19 5.537 33.251-3.165 14.25-12.657 19.001-25.314 30.877-12.657 11.875 0 22.167-26.104 33.25-26.105 11.085-37.97.793-52.21 26.919-9.492 17.417-30.06 19-61.7 4.75z" fill="#FFF"/><ellipse fill="#00D1D9" cx="229.5" cy="293.04" rx="50.648" ry="50.688"/><path d="M230.291 44.352c5.804 34.848 8.706 65.208 8.706 91.08s-2.902 55.968-8.706 90.288c-5.803-32.736-8.705-62.832-8.705-90.288 0-27.456 2.902-57.816 8.705-91.08zM120.29 100.584c21.63 22.704 36.93 40.656 45.9 53.856 8.969 13.2 21.367 37.752 37.194 73.656-22.158-24.816-39.04-46.464-50.648-64.944-11.607-18.48-22.422-39.336-32.446-62.568zM83.095 206.712c19.52 4.224 35.876 8.448 49.065 12.672 13.19 4.224 29.545 13.2 49.066 26.928-13.19-.528-28.49-4.752-45.9-12.672-17.41-7.92-34.82-16.896-52.231-26.928zM339.502 93.456c-10.552 10.56-25.06 30.36-43.526 59.4-18.466 29.04-30.6 54.12-36.404 75.24 24.797-29.04 42.471-52.008 53.023-68.904 10.552-16.896 19.52-38.808 26.907-65.736zm41.943 110.88c-13.717 2.112-28.754 6.072-45.109 11.88-16.355 5.808-33.765 14.52-52.23 26.136 14.772-2.112 29.808-6.072 45.108-11.88 15.3-5.808 32.71-14.52 52.23-26.136z" fill="#00D1D9"/><ellipse fill="#FFF" cx="249.284" cy="276.408" rx="10.288" ry="10.296"/></g></svg>