<svg width="600" height="800" viewBox="0 0 600 800" xmlns="http://www.w3.org/2000/svg"><g fill="none" fill-rule="evenodd"><path d="M300 45c-35.333 4-55 9.333-59 16s-12 12.667-24 18c32.667 8 53 22 61 42 12 30-131 40-187 121S42 445 67 537c16.667 61.333-1 120.333-53 177 1.333 12.667 33.333 19 96 19 94 0 85 25 212 25s135-31 189-18c36 8.667 62 10.333 78 5 10 .667.667-21.333-28-66-43-67 28-157 28-210s1-217-78-266-162-49-162-82c0-22 13.333-36 40-42 3.333-15.333-2.667-23-18-23-23 0-19-18-32-11-8.667 4.667-21.667 4.667-39 0Z" fill="#FFF"/><path d="M567.268 405.05c3.553 4.713 12.427 22.325 5.899 47.232-4.352 16.604-16.427 28.614-36.224 36.027-3.111.865-4.02 3.252-2.728 7.16 1.94 5.863 2.078 9.859 6.072 20.094 3.995 10.235 2.97 26.486-6.822 43.849-9.793 17.362-23.419 18.536-32.63 22.969-9.21 4.432-4.297 8.257 0 15.62 4.298 7.362 7.44 11.457 7.44 27.598s-1.619 20.652-11.668 35.749c-6.7 10.064-17.512 15.198-32.438 15.402l-1.986 4.75-18.524-12.024c.757-.718-1.482-3.428-6.718-8.128-7.854-7.051-16.363-7.746-32.145-14.417-10.522-4.447-20.718-5.423-30.588-2.93l-16.684-5.29-3.48-8.518c-11.799-17.895-13.695-34.977-5.69-51.246 12.01-24.403 24.658-25.462 33.548-28.657 8.89-3.194 9.867-.512 3.593-17.301-6.274-16.789-6.053-39.09 0-53.664 6.053-14.574 27.187-24.769 33.696-27.043 6.509-2.275 3.125-6.738-4.454-23.873-7.578-17.135 5.24-44.457 13.233-53.893 5.33-6.29 13.98-10.631 25.954-13.023l3.314-2.993c4.466.193 8.455 1.565 11.967 4.117 5.268 3.827 3.605 5.426 7.847 10.33 2.828 3.27 5.424 5.678 7.79 7.223 10.24 9.149 18.772 14.282 25.594 15.401 10.233 1.678 32.048 1.275 34.162-1.316 1.41-1.728 3.73-2.188 6.963-1.379l15.707 5.566c-2.369 1.263-2.369 3.465 0 6.607ZM404.031 573.41c-3.667-6.06-9.462-10.364-17.384-12.91-15.891 2.487-25.883 7.967-29.975 16.441-6.138 12.711-9.177 27.644-5.722 38.627 3.455 10.983 12.764 19.7 18.955 21.477 6.191 1.778 20.357-1.754 30.87-8.919 10.513-7.165 12.564-6.727 14.434-17.43 1.87-10.702-5.677-28.193-11.178-37.285Zm36.457-98.3c-9.057-12.876-17.025-14.064-27.156-10.104-10.131 3.96-28.298 14.932-28.937 30.385-.639 15.454-1.52 29.1 6.453 39.661 7.972 10.56 21.894 11.023 32.63 5.289 10.736-5.734 25.32-14.632 27.034-26.499 1.715-11.867-.968-25.855-10.024-38.732Zm-14.734 156.575c-2.612-1.989-5.3-4.147-9.167-4.578-3.867-.43-4.076.415-9.563 2.965-5.488 2.55-9.67 4.85-10.821 7.848-1.15 2.997 2.841 2.765 5.702 4.17 2.861 1.403 6.853.893 11.504 1.892 4.65.998 8.109 4.146 10.882 4.968 2.774.822 7.748 3.037 8.616-3.303.868-6.34-4.54-11.972-7.153-13.962Zm49.15-61.176c-4.95-5.519-9.45-8.677-11.64-11.054-2.191-2.378-10.994-10.907-15.852-10.89-4.86.018-11.983-.767-23.17-.515-11.187.252-19.73 3.378-14.827 10.139 4.902 6.76 15.528 16.546 21.49 20.983 5.962 4.437 13.325 3.858 19.216 4.872 5.892 1.013 13.365 1.512 20.155 0 4.528-1.009 7.376-2.461 8.546-4.358.688-2.44-.619-5.498-3.919-9.177Zm-25.601 27.496c.924-2.996-1.474-1.94-5.7-2.064-4.225-.124-7.266-2.05-11.575-3.466-4.31-1.418-7.898-3.426-11.358-6.026-3.459-2.6-3.239.766-3.113 2.646.125 1.88.723 4.621 3.564 9.61 2.84 4.99 4.602 5.173 10.481 6.863 5.88 1.69 6.288.948 9.387-1.15 3.098-2.096 7.39-3.418 8.314-6.413Zm30.307-211.198c-7.231-14.35-22.396-20.367-28.783-17.686-6.386 2.681-25.215 11.062-29.21 23.513-3.994 12.451-4.639 23.906.97 36.926 3.739 8.68 10.4 13.653 19.984 14.916 7.497.327 16.046-2.704 25.647-9.091 9.6-6.388 15.26-12.032 16.976-16.932 1.099-11.531-.763-22.08-5.584-31.646ZM465.617 551.18c2.55 1.637 2.117-3.292.996-8.375-1.12-5.084-3.41-9.297-8.496-12.236-5.085-2.939-4.412-1.828-8.368-2.004-3.956-.176-10.956 5.988-13.493 9.018-2.536 3.031 1.695 2.215 6.927 1.87 5.233-.344 6.85 1.347 12.1 3.352 5.249 2.005 7.784 6.739 10.334 8.375Zm36.75 70.477c-1.362-10.474-5.343-17.872-11.941-22.192L479.45 595c-22.182 4.867-35.688 12.386-40.52 22.559-7.247 15.26.697 26.483 5.017 36.166 2.88 6.456 6.538 11.887 10.972 16.295L466.14 674c9.123-.855 16.023-3.345 20.7-7.468 4.677-4.123 9.011-10.397 13.003-18.82 3.046-6.895 3.887-15.58 2.524-26.055Zm11.13-138.12c-1.54-7.39-10.149-15.369-25.827-23.936-23.517-12.851-43.401-7.27-45.613-4.373-2.212 2.898-2.668 4.774 2.698 11.262 5.366 6.487 17.575 14.863 27.54 18.919 9.964 4.055 20.679 4.446 31.018 3.891 6.892-.37 10.287-2.29 10.185-5.763Zm-27.034 18.15c1.965-1.796 2.046-3.017.242-3.665-3.022-.017-5.761-.19-8.217-.522-3.684-.497-4.205-1.525-9.914-3.91l-.514-.216c-5.421-2.299-9.015-4.38-10.73-6.498-1.768-2.184-4.302.161-4.33 2.184-.027 2.023 2.018 8.148 3.321 11.306 1.303 3.157 3.201 4.91 6.52 6.313 3.32 1.403 7.805 2.63 10.408 2.252 2.603-.377 10.267-4.552 13.214-7.245ZM502 455c-.58-8.346-1.66-13.468-3.239-15.365-2.368-2.847-10.662-6.873-16.422-5.27-5.76 1.603-12.372 7.185-13.25 10.547-.879 3.362 4.897 1.47 11.182 2.33 6.286.86 6.628 2.504 12.557 4.296 3.952 1.194 7.01 2.348 9.172 3.462Zm29.675 53.24c-14.03-23.49-40.388-1.807-48.213 2.8-7.824 4.609-18.772 11.407-9.276 38.272 9.497 26.864 21.658 27.89 25.014 28.178 3.357.289 21.99-6.03 25.972-12.639 2.654-4.405 5.79-9.585 9.407-15.539 7.418-11.72 6.45-25.41-2.904-41.071Zm-11.71-101.594c.268-1.131-.97-1.698-3.715-1.702-4.117-.005-8.118-.305-13.214-1.672-5.095-1.366-9.951-6.643-12.174-8.552-2.222-1.91-2.205-.146-1.248 6.783.957 6.93 6.462 11.448 9.28 12.612 2.82 1.164 8.407 1.195 11.104 0 1.798-.797 5.12-3.286 9.966-7.47Zm43.121 1.174c-10.072-12.628-38.13-3.963-44.73 5.407-6.602 9.37-21.569 16.555-6.05 46.972 15.517 30.418 35.077 18.176 45.82 8.348 7.163-6.552 10.97-13.066 11.42-19.542 2.409-19.038.255-32.766-6.46-41.185ZM272.088 401.076c-3.077-2.002 0 36.364-3.275 36.364-3.274 0-2.628-36.364-5.352-36.364-2.723 0-2.924 36.364-5.97 36.364-3.044 0-2.723-36.364-5.771-36.364s-2.315 36.364-5.298 36.364-2.915-37.52-4.36-36.364c-1.445 1.155-17.2 18.984-17.061 51.054.14 32.07 12.368 42.704 17.061 49.902s8.11 15.679 7.343 44.83c-.512 19.434-.799 37.667-.861 54.699.094 29.67.242 92.893.86 95.805.62 2.911 2.627 4.176 8.666 4.176 6.04 0 8.46-.107 9.014-4.176.555-4.07 1.754-73.56 1.73-95.805-.025-22.246-1.614-46.402-1.73-54.7-.116-8.297.116-36.816 5.004-44.829 4.888-8.013 18.938-15.345 18.642-50.439-.295-35.093-15.565-48.516-18.642-50.517ZM535.311 338.357c2.506-2.683-35.811-6.315-35.243-9.54.569-3.225 36.269 3.726 36.741 1.044.473-2.682-35.303-9.194-34.775-12.193.53-3 36.285 3.632 36.814.63.53-3.002-35.41-8.595-34.891-11.532.518-2.938 37.456 3.644 36.568 2.02-.887-1.622-15.708-20.235-47.316-25.667-31.607-5.431-44.203 4.766-52.106 8.137-7.904 3.372-16.849 5.264-45.424-.554-19.05-3.878-36.956-7.326-53.719-10.346-29.236-5.06-91.524-15.892-94.498-15.788-2.975.103-4.57 1.861-5.618 7.809-1.049 5.947-1.363 8.349 2.548 9.602 3.91 1.253 72.136 14.5 94.049 18.339 21.912 3.839 45.977 6.469 54.168 7.795 8.192 1.327 36.237 6.508 43.28 12.713 7.042 6.205 11.823 21.314 46.435 27.117 34.612 5.803 50.482-6.903 52.987-9.586Z" fill="#00D1D9" fill-rule="nonzero"/><path d="M440.146 478.818 429.019 339.12c-2.112-7.413-15.092-11.12-38.942-11.12s-37.545 3.707-41.087 11.12l-12.034 139.698H331c.148 1.284.66 2.261 1.534 2.932.874.67 1.476 1.118 1.805 1.343v6.467c-.019.343.23.832.748 1.467.517.635 1.52.953 3.007.953l1.914 11.14c.057.56.355 1.174.895 1.84.54.666 1.222.988 2.046.966h90.674c1.845.224 3.172-.06 3.981-.85.81-.792 1.214-1.444 1.214-1.957l1.643-11.14c1.55.029 2.627-.289 3.23-.952.604-.663.856-1.391.758-2.184v-5.75c.74-.41 1.539-.858 2.399-1.343.86-.486 1.238-1.463 1.136-2.932h-7.838ZM91.58 525.396l46.904 132.058c3.959 6.615 17.457 6.835 40.493.663 23.037-6.173 35.307-13.298 36.81-21.376L191.254 498.69l5.753-1.542c-.475-1.201-1.222-2.013-2.24-2.434a49.975 49.975 0 0 0-2.091-.83l-1.674-6.248c-.071-.336-.438-.743-1.102-1.223-.664-.48-1.715-.527-3.151-.142l-4.733-10.264c-.2-.528-.647-1.043-1.34-1.547-.695-.503-1.437-.638-2.227-.403l-45.522 12.198-42.062 11.27c-1.84.261-3.049.879-3.626 1.852-.576.974-.799 1.708-.666 2.204l1.296 11.185c-1.505.374-2.463.96-2.874 1.756-.41.797-.466 1.565-.166 2.306l1.488 5.554c-.608.587-1.264 1.227-1.969 1.918-.705.692-.818 1.734-.339 3.126l7.571-2.029ZM369.227 540.204l-69.43 190.758-1.545 1.735-1.592-.58.773 1.5-.702.79-1.613-.587.802 1.498-.719.807-1.563-.569.723 1.513-.72.809-1.598-.582.903 1.363-.74.831-1.544-.278.665 1.266-.713.745-1.387-.505.717 1.443-.52.456-40.696.618-.018-12.256c21.589-.544 32.664-.82 33.226-.827a4.702 4.702 0 0 1 1.743.329c-.343-.823-.462-1.29-.357-1.404.105-.113.608-.006 1.51.322-.446-.88-.616-1.372-.511-1.478.105-.106.688.008 1.748.342-.403-.754-.605-1.218-.604-1.392 0-.173.206-.474.615-.902l69.43-190.757 13.717 4.992ZM257.979 381.856 409.275 201.55l2.362-1.286 1.487 1.248-.234-1.93 1.074-.585 1.506 1.264-.266-1.939 1.1-.598 1.46 1.225-.176-1.925 1.1-.598 1.493 1.252-.429-1.831 1.131-.616 1.556.901-.21-1.633 1.067-.533 1.296 1.088-.197-1.847.744-.293 44.188 15.13-4.885 13.325c-23.528-7.793-35.596-11.794-36.207-12.004-.61-.21-1.193-.554-1.75-1.034.042 1.027-.017 1.582-.176 1.664-.158.082-.659-.23-1.5-.936.128 1.129.115 1.73-.041 1.804-.156.075-.74-.275-1.751-1.05.134.976.166 1.558.096 1.747-.07.188-.412.435-1.025.74L270.792 392.608l-12.813-10.75ZM93.247 460.84c14.365.213 25.446.213 33.244 0 11.697-.318 30.596-2.35 39.188-2.29 8.592.063 22.714-.647 27.508 0 3.195.433 5.831.433 7.907 0 .184-2.007.184-3.805 0-5.395-.276-2.384-5.196-16.667-6.194-23.325-.997-6.658-.185-13.93 5.656-23.606 5.841-9.675 21.238-23.393 27.75-29.82 6.51-6.428 13.481-16.58 13.684-23.458.202-6.878-2.634-11.538-7.327-13.171-4.693-1.633-9.726-.52-15.734 2.586-6.007 3.107-17.546 10.317-20.397 11.657-2.85 1.34-5.546 5.515-7.037.298-1.491-5.217 5.449-15.427 9.188-28.85 3.74-13.421 8.965-29.147 8.547-37.882-.419-8.735-1.887-19.076-8.547-20.556-6.66-1.48-13.228-.325-18.547 9.513-3.546 6.559-6.184 17.333-7.913 32.322-.552 5.82-1.797 8.951-3.735 9.395-2.907.666-.097-5.877.027-13.876.124-7.998 1.68-17.082 1.568-25.944-.112-8.863-3.25-20.303-10.852-23.975-7.603-3.673-11.183.341-14.078 3.593-2.895 3.253-4.238 16.387-4.425 23.766-.188 7.378.373 14.727.272 20.888-.102 6.16 2.77 15.596-.272 15.548-3.042-.048-4.142-11.617-4.956-22.866-.813-11.25-.14-32.321-15.223-31.621-15.083.7-13.67 16.59-13.353 20.547.212 2.638 1.317 15.628 3.315 38.97a763.323 763.323 0 0 0-8.193-18.241c-4.41-9.495-9.083-20.053-19.203-17.463s-8.373 20.454-7.22 26.3c.655 3.32 3.55 13.979 7.964 23.378 3.362 7.16 8.31 13.184 9.686 17.054 3.18 8.95 8.54 14.524 10.268 23.219 1.727 8.695 1.137 11.322-1.495 20.932-2.633 9.61-5.965 23.489-8.773 39.259-1.873 10.513-2.639 18.218-2.298 23.115Z" fill="#00D1D9" fill-rule="nonzero"/><path d="M516.81 692.81c0 13.069-7.025 19.736-21.077 20h-65c-5.486 0-13.82-3-25-9-163.181 1.037-246.128 1.37-248.84 1-4.07-.554-3.695-5.96-3.695-12s.783-7.38 3.694-8c1.941-.411 84.888-.078 248.841 1 11.365-8.666 19.698-13 25-13h65c14.052.265 21.078 6.93 21.078 20Zm-75.577-10c-5.246 0-11.5 2.371-11.5 9.5 0 7.13 6.254 9.5 11.5 9.5.272 0 0-19 0-19Zm19.121 9.5c0-7.21-6.253-9.5-11.5-9.5 0 0-.272 19 0 19 5.246 0 11.5-2.288 11.5-9.5Zm22.88-9.5c-5.247 0-11.5 2.371-11.5 9.5 0 7.13 6.253 9.5 11.5 9.5.27 0 0-19 0-19Zm19.12 9.5c0-7.21-6.253-9.5-11.5-9.5 0 0-.272 19 0 19 5.246 0 11.5-2.288 11.5-9.5ZM288.5 173c25.232 0 45.77 5.729 46.481 10H335v38h-.07c.046.331.07.665.07 1 0 9.941-20.819 18-46.5 18s-46.5-8.059-46.5-18c0-.335.024-.669.07-1H242v-38h.019c.71-4.271 21.249-10 46.481-10Z" fill="#00D1D9" fill-rule="nonzero"/><path d="M272.088 401.076c-3.077-2.002 0 36.364-3.275 36.364-3.274 0-2.628-36.364-5.352-36.364-2.723 0-2.924 36.364-5.97 36.364-3.044 0-2.723-36.364-5.771-36.364s-2.315 36.364-5.298 36.364-2.915-37.52-4.36-36.364c-1.445 1.155-17.2 18.984-17.061 51.054.14 32.07 12.368 42.704 17.061 49.902s8.11 15.679 7.343 44.83c-.512 19.434-.799 37.667-.861 54.699.094 29.67.242 92.893.86 95.805.62 2.911 2.627 4.176 8.666 4.176 6.04 0 8.46-.107 9.014-4.176.555-4.07 1.754-73.56 1.73-95.805-.025-22.246-1.614-46.402-1.73-54.7-.116-8.297.116-36.816 5.004-44.829 4.888-8.013 18.938-15.345 18.642-50.439-.295-35.093-15.565-48.516-18.642-50.517Z" fill="#00D1D9" fill-rule="nonzero"/></g></svg>