<svg width="458" height="462" xmlns="http://www.w3.org/2000/svg"><g fill="none"><path d="M.098 348.156c3.675-6.337 7.804-10.136 12.388-11.397 4.583-1.26 11.448-3.113 20.595-5.558 7.801-8.367 15.51-15.228 23.127-20.586 11.424-8.036 26.947-11.28 42.281-7.953 15.334 3.327 39.25-4.206 48.267-11.068 9.017-6.863 23.696-33.805 3.476-61.01-20.22-27.204-61.697-34.32-60.796-58.602.9-24.281 82.625-68.482 135.17-101.132C277.153 38.2 409.122-8.71 424.569 2.53c15.447 11.239-22.255 34.566-35.623 48.566-13.369 14-27.154 23.671-23.45 27.43 3.703 3.757 28.55.697 37.13 8.454 8.581 7.756-10.196 14.22-31.45 20.188-21.255 5.969-48.162 24.832-66.112 35.168-11.967 6.891-26.51 14.11-43.631 21.657-2.49 9.4 3.771 23.322 18.781 41.764 22.516 27.663 55.548 57.751 55.325 65.62-.149 5.247-2.042 10.423-5.678 15.529 25.985 7.293 48.699 12.546 68.14 15.756 29.163 4.816 56.943 2.928 58.9 5.544 1.957 2.616-4.639 5.099-19.093 6.207-14.453 1.109-36.809 4.713-57.5 14.034-13.793 6.213-39.535 18.517-77.224 36.91 14.635 4.069 21.929 12.51 21.88 25.322-.048 12.813.366 23.988 1.243 33.526 7.064 5.255 9.058 9.305 5.982 12.15-4.615 4.268-11.197 12.267-15.01 16.09-2.543 2.55-6.894 4.972-13.051 7.267a164.678 164.678 0 0 1-21.292 1.664c-10.891.156-19.905-1.51-18.328-3.272 1.577-1.763 13.98-3.69 29.127-7.013 10.098-2.216 17.857-6.173 23.278-11.873.81-29.112.072-46.103-2.215-50.972-3.43-7.304-12.58-15.643-20.204-15.927-7.624-.284-22.259 4.333-23.016 8.515-.757 4.182 8.92 12.34 6.74 16.869-2.18 4.53-14.18 12.456-23.038 12.322-8.858-.135-31.913-1.139-44.195 2.636-12.281 3.775-18.353 9.344-25.656 10.321-7.302.977-2.495-4.348-9.344-5.405-6.85-1.056-19.536.014-22.92-.378-3.385-.392.472-3.36 7.085-5.202 6.613-1.842 32.3-7.677 50.786-9.015 18.486-1.338 30.592.864 41.184-.555 10.591-1.419 17.883-3.746 15.984-9.269-1.898-5.522-9.633-14.56-17.246-13.079-7.613 1.481-43.572 6.585-69.684 6.585-26.112 0-58.867 1.865-94.304-19.162-35.436-21.027-29.672-24.061-46.876-24.061-11.47 0-24.768 1.571-39.895 4.715z" fill="#FFF"/><path d="M276.448 363c0 4.465-2.404 6.743-7.211 6.833H247c-1.877 0-4.728-1.025-8.553-3.075-55.825.354-84.201.468-85.13.342-1.392-.19-1.263-2.037-1.263-4.1 0-2.064.267-2.522 1.264-2.733.664-.141 29.04-.027 85.13.341 3.887-2.96 6.738-4.441 8.552-4.441h22.237c4.807.09 7.21 2.367 7.21 6.833zm-25.856-3.417c-1.795 0-3.934.81-3.934 3.246s2.14 3.246 3.934 3.246c.093 0 0-6.492 0-6.492zm6.541 3.246c0-2.464-2.139-3.246-3.934-3.246 0 0-.093 6.492 0 6.492 1.795 0 3.934-.782 3.934-3.246zm7.828-3.246c-1.795 0-3.935.81-3.935 3.246s2.14 3.246 3.935 3.246c.092 0 0-6.492 0-6.492zm6.54 3.246c0-2.464-2.138-3.246-3.933-3.246 0 0-.093 6.492 0 6.492 1.794 0 3.934-.782 3.934-3.246zm51.799-22.611c.88-1.374-15.981 0-15.981-1.463 0-1.462 15.98-1.174 15.98-2.39 0-1.217-15.98-1.306-15.98-2.667 0-1.36 15.98-1.216 15.98-2.578 0-1.361-15.98-1.034-15.98-2.366 0-1.333 16.489-1.302 15.98-1.948-.507-.645-8.342-7.683-22.436-7.62-14.094.062-18.768 5.524-21.93 7.62-3.164 2.096-6.891 3.623-19.702 3.28a1051.12 1051.12 0 0 0-24.04-.384c-13.039.041-40.823.108-42.103.384-1.28.276-1.835 1.173-1.835 3.87 0 2.698.047 3.78 1.835 4.027 1.788.248 32.327.783 42.104.772 9.776-.01 20.392-.72 24.039-.772 3.646-.052 16.18.052 19.701 2.235 3.522 2.183 6.744 8.459 22.167 8.327 15.422-.132 21.321-6.953 22.2-8.327zm-130.597-24.271c5.886.087 10.427.087 13.622 0 4.793-.13 12.537-.964 16.057-.938 3.521.025 9.308-.266 11.272 0 1.31.177 2.39.177 3.24 0 .076-.823.076-1.56 0-2.211-.113-.977-2.13-6.83-2.538-9.56-.408-2.728-.076-5.708 2.318-9.673 2.393-3.964 8.702-9.586 11.37-12.22 2.668-2.634 5.524-6.794 5.607-9.613.083-2.818-1.079-4.728-3.002-5.397-1.923-.67-3.985-.214-6.447 1.06-2.461 1.273-7.19 4.227-8.358 4.776-1.168.55-2.272 2.26-2.883.123-.611-2.138 2.233-6.323 3.765-11.823s3.673-11.944 3.502-15.524c-.172-3.58-.773-7.817-3.502-8.424-2.73-.606-5.42-.133-7.6 3.899-1.453 2.687-2.534 7.103-3.242 13.245-.227 2.385-.737 3.668-1.53 3.85-1.192.273-.04-2.408.01-5.686.051-3.278.689-7 .643-10.632-.046-3.632-1.332-8.32-4.447-9.825-3.115-1.505-4.582.14-5.768 1.473-1.187 1.332-1.737 6.715-1.814 9.739-.077 3.023.153 6.035.112 8.56-.042 2.524 1.135 6.39-.112 6.371-1.246-.02-1.697-4.76-2.03-9.37-.334-4.61-.058-13.245-6.238-12.959-6.18.287-5.602 6.799-5.471 8.42.086 1.082.54 6.405 1.358 15.97a312.824 312.824 0 0 0-3.358-7.475c-1.806-3.89-3.721-8.217-7.868-7.156-4.147 1.061-3.43 8.382-2.958 10.778.268 1.36 1.454 5.728 3.263 9.58 1.377 2.934 3.405 5.403 3.969 6.989 1.303 3.668 3.5 5.951 4.207 9.515.708 3.563.466 4.64-.613 8.578-1.078 3.938-2.444 9.625-3.594 16.088-.768 4.308-1.081 7.465-.942 9.472z" fill="#00D1D9"/><g transform="translate(126 306)" fill="#00D1D9"><circle cx="23.18" cy="30.78" r="3.42"/><circle cx="36.86" cy="29.64" r="3.42"/><circle cx="34.01" cy="23.75" r="3.99"/><circle cx="45.03" cy="17.29" r="3.99"/><path d="M41.597 23.721c1.752 0 3.129.204 3.129-1.548a3.173 3.173 0 1 0-6.346 0c0 1.752 1.464 1.548 3.217 1.548zM20.53 16.296c0-2.253-.263-4.136 1.99-4.136a4.08 4.08 0 1 1 0 8.159c-2.253 0-1.99-1.77-1.99-4.023zM11.4 28.291c0-2.253.228-2.831 2.48-2.831 2.254 0 4.87 1.254 4.87 3.507a4.08 4.08 0 0 1-4.079 4.079c-2.253 0-3.271-2.502-3.271-4.755z"/><circle cx="23.18" cy="30.78" r="3.42"/><circle cx="17.86" cy="41.04" r="3.04"/><circle cx="18.62" cy="25.08" r="3.04"/><circle cx="31.92" cy="38.38" r="3.42"/><circle cx="40.85" cy="46.55" r="5.13"/><circle cx="12.73" cy="15.77" r="5.13"/><path d="M34.473 13.947c2.878 0 4.027-2.083 4.027-4.962 0-2.878-1.358-4.805-4.236-4.805-2.88 0-5.004 1.676-5.004 4.555a5.213 5.213 0 0 0 5.213 5.212zm15.693 24.346c2.878 0-.16-4.817-.16-7.696 0-2.879.816-5.137-2.062-5.137-2.88 0-5.004 1.676-5.004 4.555 0 2.879 4.347 8.278 7.226 8.278zM8.087 48.019c-2.493-1.44-3.558-8.29-2.118-10.782 1.44-2.494 4.117-2.883 6.61-1.443 2.494 1.44.657 2.987-.783 5.48-1.439 2.493-1.216 8.184-3.709 6.745z"/></g><g transform="translate(55 301)" fill="#00D1D9"><circle cx="32.533" cy="43.2" r="4.8"/><circle cx="51.733" cy="41.6" r="4.8"/><circle cx="47.733" cy="33.333" r="5.6"/><circle cx="63.2" cy="24.267" r="5.6"/><path d="M58.381 33.293c2.46 0 4.392.286 4.392-2.173a4.453 4.453 0 1 0-8.906 0c0 2.46 2.055 2.173 4.514 2.173zM28.813 22.871c0-3.162-.368-5.804 2.794-5.804a5.725 5.725 0 1 1 0 11.45c-3.162 0-2.794-2.484-2.794-5.646zM16 39.707c0-3.162.32-3.974 3.481-3.974 3.163 0 6.836 1.76 6.836 4.922a5.725 5.725 0 0 1-5.726 5.725C17.43 46.38 16 42.87 16 39.707z"/><circle cx="32.533" cy="43.2" r="4.8"/><circle cx="25.067" cy="57.6" r="4.267"/><circle cx="26.133" cy="35.2" r="4.267"/><circle cx="44.8" cy="53.867" r="4.8"/><circle cx="57.333" cy="65.333" r="7.2"/><circle cx="17.867" cy="22.133" r="7.2"/><path d="M48.383 19.575c4.04 0 5.652-2.924 5.652-6.964 0-4.04-1.905-6.744-5.946-6.744-4.04 0-7.022 2.352-7.022 6.392a7.316 7.316 0 0 0 7.316 7.316zm22.025 34.17c4.04 0-.225-6.761-.225-10.801s1.147-7.21-2.894-7.21c-4.04 0-7.022 2.352-7.022 6.392 0 4.04 6.1 11.619 10.141 11.619zM11.35 67.394c-3.499-2.02-4.993-11.633-2.973-15.132 2.02-3.5 5.78-4.045 9.278-2.025 3.5 2.02.922 4.192-1.099 7.691-2.02 3.5-1.706 11.487-5.205 9.466z"/></g><path d="m199.544 369.905 83.885-83.885 1.247-.538.7.7-.039-.985.567-.244.71.709-.055-.992.58-.25.688.688-.01-.98.581-.25.703.702-.142-.944.598-.258.749.529-.04-.835.562-.218.61.61-.023-.942.388-.112 21.712 9.728-3.017 6.497a13921.181 13921.181 0 0 1-17.807-7.773 2.75 2.75 0 0 1-.841-.605c-.022.52-.075.798-.158.832-.084.034-.324-.147-.72-.544.019.576-.013.88-.095.91-.082.03-.362-.175-.842-.614.028.5.02.795-.023.887-.043.092-.226.2-.549.326l-83.885 83.885-6.034-6.034zm152.516-50.488c0 5.292-1.16 9.583-2 9.583a.256.256 0 0 1-.08-.013V329h-7.52l.001-.004-.081.004c-1.948 0-3.534-4.117-3.598-9.26l-.002-.323c0-5.293 1.612-9.584 3.6-9.584.027 0 .054.001.08.003v-.003h7.52v.013a.256.256 0 0 1 .08-.013c.84 0 2 4.29 2 9.584zM173.917 297.44c5.292 0 9.583 1.16 9.583 2a.256.256 0 0 1-.013.08h.013v7.52l-.004-.001.004.081c0 1.948-4.117 3.534-9.26 3.598l-.323.002c-5.293 0-9.584-1.612-9.584-3.6 0-.027.001-.054.003-.08h-.003v-7.52h.013a.256.256 0 0 1-.013-.08c0-.84 4.29-2 9.584-2z" fill="#00D1D9"/></g></svg>